<svg width="1012" height="807" viewBox="0 0 1012 807" fill="none" xmlns="http://www.w3.org/2000/svg">
<path d="M466.308 210L641.423 184.261C642.601 184.087 643.795 184.046 644.982 184.138L979.628 210M466.308 210L560.966 225.25L655.624 240.5L750.282 255.75L841.967 270.521C843.906 270.833 845.894 270.568 847.683 269.758L912.284 240.5L979.628 210M466.308 210L468.438 231.188M979.628 210V235.75M483.349 379.5L484.602 391.965C484.725 393.192 485.588 394.219 486.776 394.553L574.984 419.32L672.677 446.75L766.612 473.125L855.208 498.001C858.529 498.933 862.097 498.088 864.647 495.765L929.142 437L976.364 393.975C978.443 392.08 979.628 389.397 979.628 386.583V377.5M483.349 379.5L435.066 398.779C432.419 399.836 432.599 403.642 435.334 404.444L863.467 530C864.518 530.308 865.654 530.019 866.43 529.245L1008.03 387.961C1009.73 386.268 1008.85 383.368 1006.5 382.896L979.628 377.5M483.349 379.5L482.375 366.312M979.628 377.5V355.5M979.628 377.5L859.786 470.019C859.037 470.597 858.06 470.788 857.149 470.535L482.375 366.312M474.828 294.75L851.546 384.963C852.313 385.147 853.122 385.021 853.797 384.613L979.628 308.5M474.828 294.75L472.698 273.562M474.828 294.75L476.958 315.938M470.568 252.375L847.82 327.92C848.482 328.053 849.169 327.958 849.77 327.652L979.628 261.5M470.568 252.375L468.438 231.188M470.568 252.375L472.698 273.562M479.089 337.125L855.273 441.992C856.141 442.234 857.073 442.073 857.809 441.553L979.628 355.5M479.089 337.125L476.958 315.938M479.089 337.125L482.375 366.312M979.628 261.5V235.75M979.628 261.5V285M979.628 355.5V332M979.628 308.5V285M979.628 308.5V332M468.438 231.188L845.934 299.39C846.556 299.502 847.197 299.415 847.767 299.141L979.628 235.75M472.698 273.562L849.683 356.443C850.398 356.601 851.146 356.491 851.786 356.135L979.628 285M476.958 315.938L853.409 413.479C854.228 413.692 855.098 413.548 855.805 413.085L979.628 332" stroke="#11D900"/>
<path d="M479.604 212.5L466.886 210.5L485.384 394L498.102 397L479.604 212.5Z" fill="black"/>
<path d="M569.782 227.5L551.862 224.5L561.689 415L581.343 420.5L569.782 227.5Z" fill="black"/>
<path d="M662.272 247L641.461 242.5L647.242 437L669.208 443L662.272 247Z" fill="black"/>
<path d="M762.855 265L745.513 261V464L766.323 470.5L762.855 265Z" fill="black"/>
<path d="M843.206 272L837.425 274L847.252 491L858.813 495.5L866.906 486.5L857.079 272H843.206Z" fill="black"/>
<path d="M972.114 394.5L971.536 217.5L979.05 214V387.5L972.114 394.5Z" fill="black"/>
<path d="M921.822 239L906.214 245L920.666 441L935.118 426L921.822 239Z" fill="black"/>
<path d="M353.686 106.333L361.62 376.125C361.66 377.512 360.747 378.752 359.387 379.025C354.98 379.909 347.921 380.637 342.133 379.128C340.908 378.809 340.14 377.646 340.164 376.38L345.263 117.274L347.16 114.81C332.29 133.597 302.967 168.165 296.296 172.629C295.572 173.114 295.313 172.564 295.818 171.853C302.48 162.477 347.692 98.9001 351.08 95.7336C354.737 92.3146 359.035 96.7593 355.717 103.256C355.387 103.901 354.546 105.139 353.295 106.84L353.686 106.333Z" fill="black"/>
<path d="M354.39 91.4357C344.84 94.6866 332.291 43.8356 326.043 10.4408C325.82 9.24787 327.424 8.79654 327.842 9.93594C335.094 29.7092 350.779 72.4766 352.399 76.9288C354.514 82.7412 358.254 90.1202 354.39 91.4357Z" fill="black"/>
<path d="M363.348 97.4432C368.805 99.219 402.686 109.279 427.332 116.09C428.506 116.414 429.082 114.886 427.971 114.385C407.379 105.092 361.954 85.4091 358.371 90.9469C357.497 92.2985 357.044 95.3917 363.348 97.4432Z" fill="black"/>
<path d="M353.686 106.333L361.62 376.125C361.66 377.512 360.747 378.752 359.387 379.025C354.98 379.909 347.921 380.637 342.133 379.128C340.908 378.809 340.14 377.646 340.164 376.38L345.263 117.274L347.16 114.81C332.29 133.597 302.967 168.165 296.296 172.629C295.572 173.114 295.313 172.564 295.818 171.853C302.48 162.477 347.692 98.9001 351.08 95.7336C354.737 92.3146 359.035 96.7593 355.717 103.256C355.387 103.901 354.546 105.139 353.295 106.84L353.686 106.333Z" stroke="#11D900"/>
<path d="M354.39 91.4357C344.84 94.6866 332.291 43.8356 326.043 10.4408C325.82 9.24787 327.424 8.79654 327.842 9.93594C335.094 29.7092 350.779 72.4766 352.399 76.9288C354.514 82.7412 358.254 90.1202 354.39 91.4357Z" stroke="#11D900"/>
<path d="M363.348 97.4432C368.805 99.219 402.686 109.279 427.332 116.09C428.506 116.414 429.082 114.886 427.971 114.385C407.379 105.092 361.954 85.4091 358.371 90.9469C357.497 92.2985 357.044 95.3917 363.348 97.4432Z" stroke="#11D900"/>
<path d="M235.946 155.64L245.279 474.855C245.319 476.24 244.41 477.478 243.054 477.763C237.823 478.863 229.057 479.834 222.01 477.872C220.793 477.533 220.028 476.374 220.053 475.111L226.051 168.568L228.279 165.657C210.656 188.05 175.754 229.418 168.323 234.105C167.589 234.568 167.317 233.97 167.817 233.261C175.113 222.933 228.879 146.882 232.884 143.117C237.181 139.077 242.23 144.329 238.332 152.005C237.944 152.768 236.956 154.23 235.487 156.24L235.946 155.64Z" fill="black"/>
<path d="M236.773 138.039C225.377 141.94 210.346 79.8925 203.13 40.4934C202.911 39.2991 204.534 38.8629 204.95 40.0036C213.151 62.4918 232.482 115.502 234.434 120.897C236.919 127.765 241.313 136.484 236.773 138.039Z" fill="black"/>
<path d="M247.297 145.137C253.851 147.282 295.3 159.655 324.384 167.701C325.557 168.025 326.145 166.488 325.037 165.983C301.823 155.399 245.768 130.748 241.45 137.461C240.423 139.058 239.891 142.713 247.297 145.137Z" fill="black"/>
<path d="M235.946 155.64L245.279 474.855C245.319 476.24 244.41 477.478 243.054 477.763C237.823 478.863 229.057 479.834 222.01 477.872C220.793 477.533 220.028 476.374 220.053 475.111L226.051 168.568L228.279 165.657C210.656 188.05 175.754 229.418 168.323 234.105C167.589 234.568 167.317 233.97 167.817 233.261C175.113 222.933 228.879 146.882 232.884 143.117C237.181 139.077 242.23 144.329 238.332 152.005C237.944 152.768 236.956 154.23 235.487 156.24L235.946 155.64Z" stroke="#11D900"/>
<path d="M236.773 138.039C225.377 141.94 210.346 79.8925 203.13 40.4934C202.911 39.2991 204.534 38.8629 204.95 40.0036C213.151 62.4918 232.482 115.502 234.434 120.897C236.919 127.765 241.313 136.484 236.773 138.039Z" stroke="#11D900"/>
<path d="M247.297 145.137C253.851 147.282 295.3 159.655 324.384 167.701C325.557 168.025 326.145 166.488 325.037 165.983C301.823 155.399 245.768 130.748 241.45 137.461C240.423 139.058 239.891 142.713 247.297 145.137Z" stroke="#11D900"/>
<path d="M88.4395 220.5L100.428 616.115C100.47 617.511 99.5492 618.756 98.1833 619.047C91.4376 620.487 79.4383 621.871 70.0271 619.164C68.7995 618.811 68.0174 617.644 68.0433 616.367L75.7467 236.5L78.6055 232.896C55.748 260.92 10.2306 312.953 1.39235 317.789C0.608941 318.218 0.363135 317.504 0.890638 316.783C9.59881 304.888 79.3449 209.687 84.5117 205C90.0234 200 96.5001 206.5 91.5001 216C91.0029 216.945 89.7347 218.754 87.8503 221.243L88.4395 220.5Z" fill="black"/>
<path d="M89.5001 198.715C74.5967 203.638 54.8475 123.72 45.814 75.1635C45.5926 73.9733 47.2279 73.5395 47.6559 74.6719C57.4846 100.675 83.9108 170.595 86.5 177.5C89.6875 186 95.324 196.791 89.5001 198.715Z" fill="black"/>
<path d="M103 207.5C111.609 210.219 167.161 226.214 204.548 236.136C205.728 236.449 206.292 234.876 205.175 234.383C177.12 221.982 101.198 189.454 95.5001 198C94.1824 199.977 93.5 204.5 103 207.5Z" fill="black"/>
<path d="M88.4395 220.5L100.428 616.115C100.47 617.511 99.5492 618.756 98.1833 619.047C91.4376 620.487 79.4383 621.871 70.0271 619.164C68.7995 618.811 68.0174 617.644 68.0433 616.367L75.7467 236.5L78.6055 232.896C55.748 260.92 10.2306 312.953 1.39235 317.789C0.608941 318.218 0.363135 317.504 0.890638 316.783C9.59881 304.888 79.3449 209.687 84.5117 205C90.0234 200 96.5001 206.5 91.5001 216C91.0029 216.945 89.7347 218.754 87.8503 221.243L88.4395 220.5Z" stroke="#11D900"/>
<path d="M89.5001 198.715C74.5967 203.638 54.8475 123.72 45.814 75.1635C45.5926 73.9733 47.2279 73.5395 47.6559 74.6719C57.4846 100.675 83.9108 170.595 86.5 177.5C89.6875 186 95.324 196.791 89.5001 198.715Z" stroke="#11D900"/>
<path d="M103 207.5C111.609 210.219 167.161 226.214 204.548 236.136C205.728 236.449 206.292 234.876 205.175 234.383C177.12 221.982 101.198 189.454 95.5001 198C94.1824 199.977 93.5 204.5 103 207.5Z" stroke="#11D900"/>
<path d="M348.5 513.203L256.893 509.613C255.279 509.55 253.905 510.776 253.784 512.387L251.494 543M348.5 513.203L371 644.371M348.5 513.203L438 516.71M438 516.71L488 643.508M438 516.71L522 520.002M522 520.002L595.747 522.892C597.495 522.961 599.125 523.788 600.212 525.158L622 552.613M522 520.002L596.5 642.379M251.494 543L622 552.613M251.494 543L248.427 584M622 552.613L653.5 592.306M653.5 592.306L248.427 584M653.5 592.306L682.898 630.719C685.867 634.599 683.202 640.211 678.319 640.363L622 642.114M248.427 584L244.5 636.5V641.959C244.5 644.184 246.316 645.982 248.541 645.959L405 644.371L510.5 643.274L622 642.114M289 646L290.665 659.323C290.856 660.845 292.163 661.979 293.697 661.951L617.449 656.047C618.92 656.02 620.154 654.931 620.364 653.475L622 642.114" stroke="#11D900"/>
<path d="M644.224 628.308C680.628 621.056 745.099 620.069 772.154 625.286C803.492 631.329 827.018 644.365 845.563 665.43C846.994 666.725 851.024 669.496 855.437 670.178C861.018 671.042 864.882 672.768 868.316 678.38C871.064 682.869 873.181 711.617 873.897 725.43C874.326 730.322 873.639 741.402 867.457 746.581C865.74 754.207 861.447 768.596 852.861 775.071C844.276 781.546 834.402 779.56 829.679 777.661C824.957 775.761 818.088 771.186 815.083 762.984C780.024 765.574 704.497 772.653 682.86 780.251C681.286 784.567 672.128 796.467 662.254 801.833C652.38 807.2 638.643 806.582 632.633 804.423C626.623 802.265 618.466 796.999 611.597 788.02H608.592H594.137C593.585 788.02 593.137 787.573 593.137 787.02V785.185C593.137 784.613 592.677 784.158 592.106 784.183C570.677 785.138 527.262 784.985 515.435 784.136C512.859 787.445 503.415 793.2 486.243 793.2C480.662 793.2 466.495 792.078 451.041 778.956C446.812 779.093 437.539 778.498 432.814 775.152C432.375 774.842 432.129 774.338 432.096 773.803C431.723 767.891 431.742 760.531 432.152 754.351C430.005 751.761 427 753.056 427 740.97C427 734.512 427.858 729.163 428.657 725.582C429.375 722.362 431.792 719.966 433.876 717.409C434.159 717.061 434.395 716.709 434.552 716.366C435.014 715.358 435.157 714.207 434.727 712.912C437.16 707.301 444.687 695.128 455.334 691.329C468.642 686.581 525.473 670.927 546.344 674.063C566.271 660.893 610.995 634.927 644.224 628.308Z" fill="black"/>
<path d="M546.344 674.063C546.399 674.025 546.289 674.101 546.344 674.063ZM546.344 674.063C525.473 670.927 468.642 686.581 455.334 691.329C444.687 695.128 437.16 707.301 434.727 712.912C435.157 714.207 435.014 715.358 434.552 716.366M546.344 674.063C547.826 673.027 544.508 675.277 546.344 674.063ZM546.344 674.063C566.271 660.893 610.995 634.927 644.224 628.308C680.628 621.056 745.099 620.069 772.154 625.286C803.492 631.329 827.018 644.365 845.563 665.43C846.994 666.725 851.024 669.496 855.437 670.178C861.018 671.042 864.882 672.768 868.316 678.38C871.064 682.869 873.181 711.617 873.897 725.43C874.326 730.322 873.639 741.402 867.457 746.581M546.344 674.063C587.843 674.654 677.88 671.128 685.436 666.293C694.881 660.25 724.502 622.401 742.962 622.401M867.457 746.581C865.74 754.207 861.447 768.596 852.861 775.071C844.276 781.546 834.402 779.56 829.679 777.661C824.957 775.761 818.088 771.186 815.083 762.984M867.457 746.581C868.951 730.754 868.123 698.84 852.861 697.804C833.785 696.509 830.967 737.085 829.679 750.466C828.649 761.171 819.519 763.272 815.083 762.984M815.083 762.984C780.024 765.574 704.497 772.653 682.86 780.251M682.86 780.251C681.286 784.567 672.128 796.467 662.254 801.833C652.38 807.2 638.643 806.582 632.633 804.423C626.623 802.265 618.466 796.999 611.597 788.02M682.86 780.251C692.305 754.351 689.729 698.419 657.103 699.963C620.612 701.689 621.471 774.639 621.471 782.409C621.471 786.294 617.178 788.452 611.597 788.02M611.597 788.02H608.592H594.137C593.585 788.02 593.137 787.573 593.137 787.02V785.185C593.137 784.613 592.677 784.158 592.106 784.183C570.677 785.138 527.262 784.985 515.435 784.136M515.435 784.136C512.859 787.445 503.415 793.2 486.243 793.2C480.662 793.2 466.495 792.078 451.041 778.956M515.435 784.136L451.041 778.956M451.041 778.956C446.812 779.093 437.539 778.498 432.814 775.152C432.375 774.842 432.129 774.338 432.096 773.802C431.723 767.891 431.742 760.531 432.152 754.351C430.005 751.761 427 753.056 427 740.97C427 734.512 427.858 729.163 428.657 725.582C429.375 722.362 431.792 719.966 433.876 717.409C434.159 717.061 434.395 716.709 434.552 716.366M434.552 716.366C438.904 716.078 447.177 712.049 445.46 698.236M751.977 630.466C737.085 632.462 716.153 655.454 705.681 669.67C704.344 671.485 704.793 673.623 707.005 674.054C714.198 675.457 733.141 676.248 773.871 672.768C826.417 668.279 831.397 657.66 826.245 653.344C787.179 628.308 764.856 628.739 751.977 630.466ZM572.745 717.354L574.925 718.268C575.328 718.436 575.769 718.516 576.205 718.495C599.878 717.393 614.027 706.125 619.704 698.709C620.599 697.54 619.762 695.962 618.291 695.886C577.851 693.794 545.68 705.503 531.944 713.027C530.419 713.862 530.073 715.858 531.574 716.737C539.143 721.169 557.139 719.066 567.886 716.899C569.518 716.57 571.21 716.711 572.745 717.354Z" stroke="#11D900"/>
</svg>
