<svg width="585" height="335" viewBox="0 0 585 335" fill="none" xmlns="http://www.w3.org/2000/svg">
<path d="M227.66 73.312L230.705 176.684C230.746 178.071 229.829 179.316 228.451 179.488C227.231 179.639 225.795 179.706 224.43 179.536C223.174 179.379 222.398 178.205 222.423 176.939L224.382 77.5628L225.12 76.6054C219.76 83.3648 209.576 95.3821 206.038 98.4998C205.383 99.077 205.159 98.7359 205.666 98.0248C209.536 92.5917 225.396 70.3596 226.646 69.1941C228.069 67.8658 229.742 69.5926 228.45 72.1165C228.322 72.3675 227.994 72.8482 227.508 73.5093L227.66 73.312Z" fill="#3A0B5C"/>
<path d="M227.934 67.5243C224.787 68.5936 220.803 54.5961 218.18 42.4038C217.924 41.2175 219.418 40.8056 219.836 41.9446C222.836 50.1079 226.667 60.5373 227.159 61.8881C227.982 64.1464 229.438 67.0132 227.934 67.5243Z" fill="#3A0B5C"/>
<path d="M231.421 69.8583C233.089 70.4003 241.585 72.9285 249.802 75.2707C250.974 75.6046 251.488 74.1905 250.369 73.71C241.75 70.0108 230.58 65.6423 229.483 67.3344C229.143 67.8595 228.967 69.0613 231.421 69.8583Z" fill="#3A0B5C"/>
<path d="M227.66 73.312L230.705 176.684C230.746 178.071 229.829 179.316 228.451 179.488C227.231 179.639 225.795 179.706 224.43 179.536C223.174 179.379 222.398 178.205 222.423 176.939L224.382 77.5628L225.12 76.6054C219.76 83.3648 209.576 95.3821 206.038 98.4998C205.383 99.077 205.159 98.7359 205.666 98.0248C209.536 92.5917 225.396 70.3596 226.646 69.1941C228.069 67.8658 229.742 69.5926 228.45 72.1165C228.322 72.3675 227.994 72.8482 227.508 73.5093L227.66 73.312Z" stroke="#F0F0F0"/>
<path d="M227.934 67.5243C224.787 68.5936 220.803 54.5961 218.18 42.4038C217.924 41.2175 219.418 40.8056 219.836 41.9446C222.836 50.1079 226.667 60.5373 227.159 61.8881C227.982 64.1464 229.438 67.0132 227.934 67.5243Z" stroke="#F0F0F0"/>
<path d="M231.421 69.8583C233.089 70.4003 241.585 72.9285 249.802 75.2707C250.974 75.6046 251.488 74.1905 250.369 73.71C241.75 70.0108 230.58 65.6423 229.483 67.3344C229.143 67.8595 228.967 69.0613 231.421 69.8583Z" stroke="#F0F0F0"/>
<path d="M189.834 91.7737L193.424 214.349C193.465 215.735 192.55 216.977 191.178 217.173C189.555 217.405 187.536 217.523 185.669 217.234C184.419 217.041 183.648 215.869 183.673 214.605L185.982 96.7963L186.85 95.665C180.439 103.796 168.154 118.367 164.214 121.724C163.552 122.288 163.326 121.918 163.828 121.209C168.064 115.226 187.156 88.3027 188.642 86.908C190.314 85.3385 192.279 87.3789 190.762 90.3611C190.611 90.6576 190.227 91.2256 189.655 92.0068L189.834 91.7737Z" fill="#3A0B5C"/>
<path d="M190.155 84.935C186.301 86.2524 181.377 68.2165 178.31 53.4235C178.064 52.2348 179.585 51.817 180.002 52.9573C183.595 62.7932 188.631 76.5807 189.245 78.2754C190.212 80.9437 191.923 84.3311 190.155 84.935Z" fill="#3A0B5C"/>
<path d="M194.252 87.6928C196.342 88.3757 207.552 91.7271 217.761 94.635C218.932 94.9687 219.462 93.5287 218.346 93.0406C208.048 88.536 193.344 82.5882 191.976 84.7106C191.576 85.3311 191.369 86.7511 194.252 87.6928Z" fill="#3A0B5C"/>
<path d="M189.834 91.7737L193.424 214.349C193.465 215.735 192.55 216.977 191.178 217.173C189.555 217.405 187.536 217.523 185.669 217.234C184.419 217.041 183.648 215.869 183.673 214.605L185.982 96.7963L186.85 95.665C180.439 103.796 168.154 118.367 164.214 121.724C163.552 122.288 163.326 121.918 163.828 121.209C168.064 115.226 187.156 88.3027 188.642 86.908C190.314 85.3385 192.279 87.3789 190.762 90.3611C190.611 90.6576 190.227 91.2256 189.655 92.0068L189.834 91.7737Z" stroke="#F0F0F0"/>
<path d="M190.155 84.935C186.301 86.2524 181.377 68.2165 178.31 53.4235C178.064 52.2348 179.585 51.817 180.002 52.9573C183.595 62.7932 188.631 76.5807 189.245 78.2754C190.212 80.9437 191.923 84.3311 190.155 84.935Z" stroke="#F0F0F0"/>
<path d="M194.252 87.6928C196.342 88.3757 207.552 91.7271 217.761 94.635C218.932 94.9687 219.462 93.5287 218.346 93.0406C208.048 88.536 193.344 82.5882 191.976 84.7106C191.576 85.3311 191.369 86.7511 194.252 87.6928Z" stroke="#F0F0F0"/>
<path d="M132.422 106.278L137.044 258.522C137.086 259.918 136.159 261.166 134.779 261.385C132.453 261.755 129.315 261.98 126.526 261.462C125.269 261.229 124.484 260.051 124.51 258.773L127.482 112.494L128.594 111.094C120.224 121.338 104.047 139.838 99.2975 143.556C98.5933 144.107 98.352 143.678 98.8811 142.957C103.923 136.085 128.965 102.002 130.893 100.256C133.038 98.3133 135.559 100.839 133.613 104.53C133.42 104.897 132.926 105.6 132.193 106.566L132.422 106.278Z" fill="#3A0B5C"/>
<path d="M132.835 97.814C127.634 99.529 120.916 74.7431 117.049 56.002C116.804 54.8165 118.351 54.3832 118.78 55.5152C123.389 67.6876 130.818 87.3124 131.667 89.5717C132.908 92.8741 135.102 97.0666 132.835 97.814Z" fill="#3A0B5C"/>
<path d="M138.089 101.227C140.955 102.13 157.181 106.806 170.922 110.552C172.1 110.873 172.621 109.389 171.498 108.909C158.315 103.272 137.039 94.7383 135.17 97.5363C134.657 98.3042 134.392 100.062 138.089 101.227Z" fill="#3A0B5C"/>
<path d="M132.422 106.278L137.044 258.522C137.086 259.918 136.159 261.166 134.779 261.385C132.453 261.755 129.315 261.98 126.526 261.462C125.269 261.229 124.484 260.051 124.51 258.773L127.482 112.494L128.594 111.094C120.224 121.338 104.047 139.838 99.2975 143.556C98.5933 144.107 98.352 143.678 98.8811 142.957C103.923 136.085 128.965 102.002 130.893 100.256C133.038 98.3133 135.559 100.839 133.613 104.53C133.42 104.897 132.926 105.6 132.193 106.566L132.422 106.278Z" stroke="#F0F0F0"/>
<path d="M132.835 97.814C127.634 99.529 120.916 74.7431 117.049 56.002C116.804 54.8165 118.351 54.3832 118.78 55.5152C123.389 67.6876 130.818 87.3124 131.667 89.5717C132.908 92.8741 135.102 97.0666 132.835 97.814Z" stroke="#F0F0F0"/>
<path d="M138.089 101.227C140.955 102.13 157.181 106.806 170.922 110.552C172.1 110.873 172.621 109.389 171.498 108.909C158.315 103.272 137.039 94.7383 135.17 97.5363C134.657 98.3042 134.392 100.062 138.089 101.227Z" stroke="#F0F0F0"/>
<path d="M245.226 188.114L295.361 190.088L345.586 192.066L392.724 193.923L432.893 195.504C434.645 195.573 436.279 196.405 437.365 197.781L448.841 212.313L466.517 234.697L479.942 252.325C482.897 256.206 480.232 261.805 475.356 261.957L448.841 262.785L434.531 262.935L386.27 263.44L373.644 263.572L327.067 264.059L241.041 264.936C238.816 264.959 237 263.161 237 260.936V259.62L239.204 230.013L240.925 206.892L242.116 190.889C242.236 189.277 243.611 188.05 245.226 188.114Z" fill="#3A0B5C"/>
<path d="M295.361 190.088L245.226 188.114C243.611 188.05 242.236 189.277 242.116 190.889L240.925 206.892M295.361 190.088L307.988 264.059M295.361 190.088L345.586 192.066M345.586 192.066L373.644 263.572M345.586 192.066L392.724 193.923M392.724 193.923L432.893 195.504C434.645 195.573 436.279 196.405 437.365 197.781L448.841 212.313M392.724 193.923L434.531 262.935M240.925 206.892L448.841 212.313M240.925 206.892L239.204 230.013M448.841 212.313L466.517 234.697M466.517 234.697L239.204 230.013M466.517 234.697L479.942 252.325C482.897 256.206 480.232 261.805 475.356 261.957L448.841 262.785M239.204 230.013L237 259.62V260.936C237 263.161 238.816 264.959 241.041 264.936L327.067 264.059L386.27 263.44L448.841 262.785M261.972 264.977L262.761 271.321C262.951 272.844 264.259 273.979 265.793 273.951L445.166 270.663C446.637 270.636 447.872 269.546 448.08 268.089L448.841 262.785" stroke="#F0F0F0"/>
</svg>
