<svg width="585" height="335" viewBox="0 0 585 335" fill="none" xmlns="http://www.w3.org/2000/svg">
<path d="M154.502 94.4427L249.219 78.347C250.575 78.1166 251.954 78.0619 253.324 78.1843L435.292 94.4427M154.502 94.4427L206.281 104.087L258.059 113.731L309.838 123.375L358.214 132.386C360.418 132.797 362.697 132.454 364.683 131.414L398.455 113.731L435.292 94.4427M154.502 94.4427L155.667 107.842M435.292 94.4427V110.727M163.823 201.636L164.448 208.826C164.553 210.027 165.365 211.048 166.511 211.42L213.949 226.819L267.387 244.166L318.771 260.846L364.156 275.579C367.821 276.768 371.843 275.746 374.496 272.952L407.676 238L432.545 211.803C434.309 209.945 435.292 207.481 435.292 204.918V200.372M163.823 201.636L139.826 212.715C137.365 213.851 137.553 217.409 140.12 218.28L370.774 296.483C371.929 296.875 373.206 296.528 374.004 295.607L449.739 208.244C451.219 206.536 450.352 203.867 448.151 203.356L435.292 200.372M163.823 201.636L163.29 193.296M435.292 200.372V186.458M435.292 200.372L370.368 258.319C369.574 259.027 368.465 259.262 367.452 258.937L163.29 193.296M159.163 148.04L364.524 204.896C365.386 205.134 366.31 204.976 367.043 204.463L435.292 156.735M159.163 148.04L157.997 134.64M159.163 148.04L160.328 161.439M156.832 121.241L362.584 168.876C363.333 169.05 364.12 168.929 364.783 168.538L435.292 127.012M156.832 121.241L155.667 107.842M156.832 121.241L157.997 134.64M161.493 174.838L366.466 240.898C367.435 241.211 368.496 241.01 369.284 240.367L435.292 186.458M161.493 174.838L160.328 161.439M161.493 174.838L163.29 193.296M435.292 127.012V110.727M435.292 127.012V141.874M435.292 186.458V171.597M435.292 156.735V141.874M435.292 156.735V171.597M155.667 107.842L361.59 150.854C362.295 151.002 363.031 150.89 363.661 150.54L435.292 110.727M157.997 134.64L363.554 186.888C364.36 187.093 365.216 186.954 365.916 186.504L435.292 141.874M160.328 161.439L365.494 222.899C366.411 223.174 367.403 222.995 368.166 222.417L435.292 171.597" stroke="#11D900"/>
<path d="M161.775 96.0236L154.818 94.7588L164.937 210.806L171.893 212.703L161.775 96.0236Z" fill="black"/>
<path d="M211.103 105.51L201.3 103.613L206.676 224.087L217.427 227.565L211.103 105.51Z" fill="black"/>
<path d="M261.696 117.842L250.312 114.996L253.474 238L265.49 241.795L261.696 117.842Z" fill="black"/>
<path d="M316.715 129.225L307.229 126.696V255.075L318.613 259.186L316.715 129.225Z" fill="black"/>
<path d="M360.668 133.652L357.506 134.917L362.881 272.15L369.205 274.996L373.632 269.304L368.257 133.652H360.668Z" fill="black"/>
<path d="M431.182 211.123L430.866 99.1859L434.976 96.9724V206.696L431.182 211.123Z" fill="black"/>
<path d="M403.672 112.783L395.134 116.577L403.04 240.53L410.945 231.044L403.672 112.783Z" fill="black"/>
</svg>
