<svg width="585" height="335" viewBox="0 0 585 335" fill="none" xmlns="http://www.w3.org/2000/svg">
<path d="M287.086 120.919C307.808 116.808 340.146 115.278 364.397 116.313C373.504 116.702 381.471 117.452 387.255 118.563C411.793 123.276 430.213 133.442 444.734 149.871C445.855 150.881 449.01 153.041 452.465 153.574C456.835 154.247 459.86 155.594 462.549 159.97C464.701 163.471 466.359 185.892 466.919 196.664C467.255 200.48 466.718 209.12 461.877 213.16C460.533 219.107 457.171 230.329 450.449 235.379C443.726 240.428 435.995 238.88 432.297 237.398C428.6 235.917 423.221 232.349 420.868 225.953C393.417 227.972 334.279 233.493 317.338 239.418C316.106 242.785 308.935 252.065 301.203 256.251C293.472 260.436 282.716 259.954 278.01 258.27C273.304 256.587 266.917 252.48 261.539 245.478H259.186H248.085C247.533 245.478 247.085 245.03 247.085 244.478V243.497C247.085 242.926 246.62 242.47 246.049 242.495C229.192 243.229 195.463 243.108 186.244 242.448C184.228 245.029 176.833 249.518 163.387 249.518C159.017 249.518 147.925 248.642 135.824 238.408C132.558 238.514 125.449 238.064 121.705 235.548C121.259 235.247 121.011 234.74 120.978 234.203C120.699 229.624 120.717 223.974 121.034 219.22C119.353 217.2 117 218.21 117 208.784C117 204.295 117.534 200.493 118.093 197.742C118.732 194.596 121.573 192.511 122.914 189.595C123.275 188.809 123.387 187.912 123.05 186.902C124.955 182.525 130.849 173.032 139.185 170.069C149.605 166.366 194.104 154.158 210.446 156.604C226.049 146.332 261.067 126.082 287.086 120.919Z" fill="black"/>
<path d="M210.446 156.604C210.489 156.574 210.403 156.633 210.446 156.604ZM210.446 156.604C194.104 154.158 149.605 166.366 139.185 170.069C130.849 173.032 124.955 182.525 123.05 186.902C123.387 187.912 123.275 188.809 122.914 189.595M210.446 156.604C211.607 155.796 209.009 157.55 210.446 156.604ZM210.446 156.604C226.049 146.332 261.067 126.082 287.086 120.919C315.59 115.264 366.071 114.494 387.255 118.563C411.793 123.276 430.213 133.442 444.734 149.871C445.855 150.881 449.01 153.041 452.465 153.574C456.835 154.247 459.86 155.594 462.55 159.97C464.701 163.471 466.359 185.892 466.919 196.664C467.255 200.48 466.718 209.12 461.877 213.16M210.446 156.604C242.94 157.064 313.439 154.314 319.355 150.544C326.75 145.831 349.943 116.313 364.397 116.313M461.877 213.16C460.533 219.107 457.171 230.329 450.449 235.379C443.726 240.428 435.995 238.88 432.297 237.398C428.6 235.917 423.221 232.349 420.868 225.953M461.877 213.16C463.047 200.816 462.398 175.927 450.449 175.119C435.512 174.109 433.306 205.754 432.297 216.19C431.49 224.539 424.342 226.177 420.868 225.953M420.868 225.953C393.417 227.972 334.279 233.493 317.338 239.418M317.338 239.418C316.106 242.785 308.935 252.065 301.203 256.251C293.472 260.436 282.716 259.954 278.01 258.27C273.304 256.587 266.917 252.48 261.539 245.478M317.338 239.418C324.733 219.22 322.716 175.598 297.17 176.802C268.598 178.149 269.27 235.042 269.27 241.102C269.27 244.131 265.909 245.815 261.539 245.478M261.539 245.478H259.186H248.085C247.533 245.478 247.085 245.03 247.085 244.478V243.497C247.085 242.926 246.62 242.47 246.049 242.495C229.192 243.229 195.463 243.108 186.244 242.448M186.244 242.448C184.228 245.029 176.833 249.518 163.387 249.518C159.017 249.518 147.925 248.642 135.824 238.408M186.244 242.448L135.824 238.408M135.824 238.408C132.558 238.514 125.449 238.064 121.705 235.548C121.259 235.247 121.011 234.74 120.978 234.203C120.699 229.624 120.717 223.974 121.034 219.22C119.353 217.2 117 218.21 117 208.784C117 204.295 117.534 200.493 118.093 197.742C118.732 194.596 121.573 192.511 122.914 189.595V189.595M122.914 189.595C126.321 189.37 132.798 186.228 131.454 175.456M371.456 122.603C360.033 124.128 344.071 141.367 335.717 152.492C334.36 154.3 334.84 156.384 337.072 156.743C343.264 157.74 358.163 158.184 388.599 155.594C429.742 152.093 433.642 143.811 429.608 140.445C399.019 120.919 381.54 121.256 371.456 122.603ZM231.623 190.577L232.694 191.024C233.096 191.191 233.535 191.27 233.969 191.249C251.84 190.379 262.753 182.135 267.45 176.376C268.382 175.234 267.562 173.658 266.088 173.589C235.345 172.153 210.798 180.826 199.796 186.655C198.255 187.471 197.942 189.462 199.512 190.219C205.622 193.165 218.607 191.71 226.78 190.117C228.407 189.799 230.092 189.938 231.623 190.577Z" stroke="#11D900"/>
</svg>
