<svg width="1005" height="606" viewBox="0 0 1005 606" fill="none" xmlns="http://www.w3.org/2000/svg">
<rect width="1005" height="606" fill="#F0F0F0"/>
<path d="M915.5 303C915.5 440.242 804.02 551.5 666.5 551.5C528.98 551.5 417.5 440.242 417.5 303C417.5 165.758 528.98 54.5 666.5 54.5C804.02 54.5 915.5 165.758 915.5 303Z" stroke="black"/>
<path d="M587.826 293.601C587.911 295.897 587.965 298.201 587.988 300.513C587.712 300.515 587.49 300.741 587.492 301.017C587.497 301.677 587.5 302.338 587.5 303C587.5 303.662 587.497 304.323 587.492 304.983C587.49 305.259 587.712 305.485 587.988 305.487C587.965 307.799 587.911 310.103 587.826 312.399C587.55 312.388 587.318 312.603 587.307 312.879C587.255 314.193 587.194 315.505 587.122 316.814C587.107 317.09 587.318 317.325 587.593 317.341C587.462 319.65 587.299 321.951 587.105 324.242C586.83 324.219 586.588 324.422 586.564 324.697C586.451 326.006 586.327 327.312 586.193 328.615C586.165 328.89 586.365 329.135 586.639 329.163C586.398 331.464 586.126 333.756 585.823 336.037C585.55 336.001 585.298 336.193 585.261 336.466C585.086 337.768 584.9 339.067 584.704 340.363C584.663 340.636 584.851 340.891 585.123 340.932C584.773 343.218 584.392 345.493 583.98 347.757C583.709 347.708 583.449 347.887 583.399 348.159C583.161 349.452 582.913 350.741 582.655 352.027C582.601 352.298 582.776 352.561 583.047 352.616C582.588 354.88 582.098 357.133 581.578 359.375C581.31 359.313 581.041 359.48 580.978 359.748C580.678 361.029 580.368 362.306 580.049 363.579C579.982 363.846 580.144 364.118 580.412 364.185C579.845 366.424 579.248 368.65 578.621 370.864C578.356 370.789 578.079 370.943 578.003 371.208C577.642 372.473 577.272 373.734 576.891 374.991C576.811 375.255 576.96 375.534 577.224 375.614C576.551 377.822 575.848 380.017 575.115 382.198C574.853 382.11 574.57 382.25 574.481 382.511C574.06 383.758 573.629 385 573.188 386.238C573.095 386.498 573.231 386.783 573.491 386.876C572.712 389.048 571.905 391.206 571.068 393.35C570.811 393.249 570.521 393.376 570.42 393.633C569.939 394.858 569.449 396.078 568.949 397.293C568.844 397.548 568.966 397.84 569.221 397.946C568.339 400.077 567.429 402.193 566.49 404.295C566.238 404.182 565.943 404.294 565.829 404.546C565.29 405.747 564.742 406.942 564.184 408.132C564.067 408.382 564.174 408.68 564.424 408.797C563.442 410.883 562.431 412.953 561.393 415.008C561.146 414.883 560.846 414.981 560.721 415.227C560.125 416.4 559.519 417.568 558.905 418.731C558.776 418.975 558.87 419.277 559.113 419.406C558.032 421.443 556.924 423.462 555.788 425.464C555.549 425.328 555.244 425.412 555.107 425.652C554.455 426.795 553.795 427.933 553.126 429.065C552.986 429.303 553.064 429.609 553.302 429.75C552.125 431.732 550.921 433.696 549.692 435.642C549.459 435.494 549.15 435.563 549.002 435.796C548.297 436.907 547.583 438.013 546.86 439.112C546.709 439.342 546.773 439.652 547.003 439.804C545.734 441.727 544.438 443.632 543.117 445.518C542.891 445.359 542.58 445.413 542.421 445.639C541.664 446.715 540.898 447.785 540.124 448.849C539.962 449.072 540.011 449.385 540.234 449.547C538.874 451.408 537.49 453.249 536.081 455.07C535.863 454.901 535.549 454.94 535.379 455.158C534.572 456.197 533.756 457.23 532.933 458.256C532.76 458.471 532.794 458.785 533.009 458.958C531.563 460.752 530.093 462.525 528.599 464.278C528.389 464.099 528.074 464.123 527.894 464.333C527.039 465.332 526.175 466.325 525.304 467.311C525.121 467.518 525.14 467.833 525.347 468.016C523.818 469.739 522.266 471.441 520.69 473.121C520.489 472.932 520.173 472.942 519.984 473.143C519.081 474.101 518.172 475.051 517.255 475.995C517.063 476.193 517.067 476.509 517.265 476.702C515.656 478.35 514.025 479.977 512.371 481.58C512.179 481.382 511.863 481.377 511.665 481.568C510.718 482.483 509.765 483.389 508.804 484.288C508.603 484.477 508.592 484.793 508.78 484.995C507.096 486.565 505.39 488.113 503.662 489.637C503.48 489.43 503.164 489.409 502.957 489.591C501.968 490.46 500.973 491.32 499.971 492.173C499.76 492.352 499.735 492.667 499.914 492.878C498.157 494.366 496.379 495.831 494.581 497.272C494.409 497.057 494.095 497.021 493.879 497.194C492.851 498.014 491.816 498.827 490.774 499.631C490.556 499.8 490.515 500.114 490.684 500.332C488.859 501.736 487.014 503.115 485.149 504.469C484.987 504.246 484.675 504.196 484.451 504.358C483.386 505.128 482.313 505.891 481.235 506.645C481.009 506.803 480.953 507.115 481.111 507.341C479.222 508.657 477.314 509.947 475.387 511.211C475.236 510.98 474.926 510.916 474.695 511.067C473.594 511.786 472.487 512.497 471.374 513.199C471.14 513.346 471.07 513.655 471.217 513.888C469.268 515.113 467.301 516.311 465.316 517.482C465.176 517.245 464.869 517.165 464.632 517.305C463.498 517.971 462.358 518.629 461.213 519.277C460.973 519.413 460.888 519.718 461.024 519.958C459.019 521.088 456.997 522.192 454.957 523.268C454.829 523.024 454.527 522.93 454.283 523.058C453.119 523.669 451.949 524.272 450.774 524.865C450.528 524.989 450.429 525.29 450.553 525.536C448.497 526.569 446.424 527.575 444.336 528.553C444.219 528.303 443.922 528.195 443.671 528.311C442.48 528.866 441.283 529.412 440.081 529.949C439.829 530.061 439.716 530.356 439.828 530.609C437.725 531.542 435.607 532.448 433.473 533.325C433.369 533.07 433.077 532.948 432.822 533.052C431.605 533.549 430.384 534.037 429.158 534.516C428.901 534.616 428.774 534.906 428.874 535.163C426.728 535.995 424.569 536.799 422.395 537.573C422.303 537.313 422.018 537.177 421.757 537.269C420.519 537.707 419.276 538.136 418.029 538.556C417.767 538.644 417.626 538.927 417.714 539.188C415.531 539.917 413.336 540.617 411.127 541.286C411.047 541.022 410.768 540.872 410.504 540.952C409.246 541.33 407.985 541.699 406.719 542.058C406.454 542.134 406.299 542.41 406.374 542.675C404.16 543.299 401.932 543.892 399.693 544.456C399.626 544.188 399.355 544.026 399.087 544.092C397.813 544.41 396.536 544.718 395.255 545.016C394.986 545.079 394.819 545.347 394.881 545.616C392.639 546.133 390.385 546.62 388.12 547.076C388.066 546.805 387.803 546.63 387.532 546.684C386.246 546.94 384.956 547.186 383.662 547.423C383.391 547.472 383.211 547.733 383.26 548.004C380.995 548.414 378.72 548.792 376.434 549.14C376.393 548.868 376.138 548.68 375.866 548.721C374.57 548.915 373.27 549.1 371.968 549.275C371.694 549.311 371.502 549.563 371.539 549.836C369.257 550.137 366.965 550.408 364.664 550.647C364.635 550.373 364.39 550.173 364.116 550.201C362.813 550.334 361.507 550.457 360.198 550.57C359.923 550.593 359.719 550.835 359.743 551.11C357.451 551.303 355.15 551.465 352.841 551.596C352.825 551.32 352.59 551.109 352.314 551.124C351.005 551.195 349.693 551.257 348.379 551.308C348.103 551.319 347.888 551.551 347.899 551.827C345.603 551.911 343.299 551.965 340.987 551.988C340.985 551.712 340.759 551.49 340.483 551.492C339.823 551.497 339.162 551.5 338.5 551.5C337.838 551.5 337.177 551.497 336.517 551.492C336.241 551.49 336.015 551.712 336.013 551.988C333.701 551.965 331.397 551.911 329.101 551.827C329.112 551.551 328.897 551.319 328.621 551.308C327.307 551.257 325.995 551.195 324.686 551.124C324.41 551.109 324.174 551.32 324.159 551.596C321.85 551.465 319.549 551.303 317.257 551.11C317.281 550.835 317.077 550.593 316.802 550.57C315.493 550.457 314.187 550.334 312.884 550.201C312.61 550.173 312.365 550.373 312.336 550.647C310.035 550.408 307.743 550.137 305.461 549.836C305.498 549.563 305.306 549.311 305.032 549.275C303.73 549.1 302.43 548.915 301.134 548.721C300.861 548.68 300.607 548.868 300.566 549.14C298.28 548.792 296.005 548.414 293.74 548.004C293.789 547.733 293.609 547.472 293.338 547.423C292.044 547.186 290.754 546.94 289.468 546.684C289.197 546.63 288.934 546.805 288.88 547.076C286.615 546.62 284.361 546.133 282.119 545.616C282.181 545.347 282.014 545.079 281.745 545.016C280.464 544.718 279.187 544.41 277.913 544.092C277.645 544.026 277.374 544.188 277.307 544.456C275.068 543.892 272.84 543.299 270.626 542.675C270.701 542.41 270.546 542.134 270.281 542.058C269.015 541.699 267.753 541.33 266.496 540.952C266.232 540.872 265.953 541.022 265.873 541.286C263.664 540.616 261.469 539.917 259.286 539.188C259.374 538.927 259.233 538.644 258.971 538.556C257.724 538.136 256.481 537.707 255.243 537.269C254.982 537.177 254.697 537.313 254.605 537.573C252.431 536.799 250.272 535.995 248.126 535.163C248.226 534.906 248.099 534.616 247.842 534.516C246.616 534.037 245.395 533.549 244.178 533.052C243.923 532.948 243.631 533.07 243.527 533.325C241.393 532.448 239.275 531.542 237.172 530.609C237.284 530.356 237.171 530.061 236.919 529.949C235.717 529.412 234.52 528.866 233.329 528.311C233.078 528.195 232.781 528.303 232.664 528.553C230.576 527.575 228.503 526.569 226.447 525.536C226.571 525.29 226.472 524.989 226.226 524.865C225.051 524.272 223.881 523.669 222.717 523.058C222.473 522.93 222.171 523.024 222.042 523.268C220.003 522.192 217.981 521.088 215.976 519.958C216.112 519.718 216.027 519.413 215.787 519.277C214.642 518.629 213.502 517.971 212.368 517.305C212.131 517.165 211.824 517.245 211.684 517.482C209.699 516.311 207.732 515.113 205.783 513.888C205.93 513.655 205.86 513.346 205.626 513.199C204.513 512.497 203.406 511.786 202.305 511.067C202.074 510.916 201.764 510.98 201.613 511.211C199.686 509.947 197.778 508.657 195.889 507.341C196.047 507.115 195.991 506.803 195.765 506.645C194.687 505.891 193.614 505.128 192.549 504.357C192.325 504.196 192.013 504.246 191.851 504.469C189.986 503.115 188.141 501.736 186.316 500.332C186.485 500.114 186.444 499.8 186.226 499.631C185.184 498.827 184.149 498.014 183.121 497.194C182.905 497.021 182.591 497.057 182.419 497.272C180.621 495.831 178.843 494.366 177.086 492.878C177.265 492.667 177.24 492.352 177.029 492.173C176.027 491.32 175.032 490.46 174.043 489.591C173.836 489.409 173.52 489.43 173.338 489.637C171.61 488.113 169.904 486.565 168.22 484.995C168.408 484.793 168.397 484.477 168.196 484.288C167.235 483.389 166.282 482.483 165.335 481.568C165.137 481.377 164.821 481.382 164.629 481.58C162.975 479.977 161.344 478.35 159.735 476.702C159.933 476.509 159.937 476.193 159.745 475.995C158.828 475.051 157.919 474.101 157.016 473.143C156.827 472.942 156.511 472.932 156.31 473.121C154.734 471.441 153.182 469.739 151.653 468.016C151.86 467.833 151.879 467.518 151.696 467.311C150.825 466.325 149.961 465.332 149.106 464.333C148.926 464.123 148.611 464.098 148.401 464.278C146.907 462.525 145.437 460.752 143.991 458.958C144.206 458.785 144.24 458.471 144.067 458.256C143.244 457.23 142.428 456.197 141.621 455.158C141.451 454.94 141.137 454.901 140.919 455.07C139.51 453.249 138.126 451.408 136.766 449.547C136.989 449.385 137.038 449.072 136.876 448.849C136.102 447.785 135.336 446.715 134.579 445.639C134.42 445.413 134.109 445.359 133.883 445.518C132.562 443.632 131.266 441.727 129.997 439.804C130.227 439.652 130.291 439.342 130.14 439.112C129.417 438.013 128.703 436.907 127.998 435.796C127.85 435.563 127.541 435.494 127.308 435.642C126.079 433.696 124.875 431.732 123.698 429.75C123.936 429.609 124.014 429.303 123.874 429.065C123.205 427.933 122.545 426.795 121.893 425.651C121.756 425.412 121.451 425.328 121.212 425.464C120.076 423.462 118.968 421.443 117.887 419.406C118.13 419.277 118.224 418.975 118.095 418.731C117.481 417.568 116.875 416.4 116.279 415.227C116.154 414.981 115.854 414.883 115.607 415.007C114.569 412.953 113.558 410.883 112.576 408.797C112.826 408.68 112.933 408.382 112.816 408.132C112.258 406.942 111.71 405.747 111.171 404.546C111.057 404.294 110.762 404.182 110.51 404.295C109.571 402.193 108.661 400.077 107.779 397.945C108.034 397.84 108.156 397.548 108.051 397.293C107.551 396.078 107.061 394.858 106.58 393.633C106.479 393.376 106.189 393.249 105.932 393.35C105.095 391.206 104.288 389.048 103.509 386.876C103.769 386.783 103.905 386.497 103.812 386.238C103.371 385 102.94 383.758 102.519 382.511C102.43 382.25 102.147 382.11 101.885 382.198C101.152 380.017 100.449 377.822 99.7758 375.614C100.04 375.534 100.189 375.255 100.109 374.991C99.7284 373.734 99.3576 372.473 98.9966 371.208C98.9208 370.943 98.6444 370.789 98.379 370.864C97.752 368.65 97.155 366.424 96.5883 364.185C96.8558 364.118 97.0182 363.846 96.951 363.579C96.6315 362.306 96.3218 361.029 96.0221 359.748C95.9592 359.479 95.6905 359.313 95.4218 359.375C94.9019 357.133 94.4123 354.88 93.9535 352.616C94.224 352.561 94.3992 352.298 94.3449 352.027C94.0871 350.741 93.8392 349.452 93.6014 348.159C93.5514 347.887 93.2911 347.708 93.0196 347.757C92.6078 345.493 92.2267 343.218 91.8766 340.932C92.1494 340.891 92.3371 340.636 92.2958 340.363C92.1 339.067 91.9143 337.768 91.7387 336.466C91.7018 336.193 91.4503 336.001 91.1768 336.037C90.8737 333.756 90.6016 331.464 90.3609 329.163C90.6353 329.135 90.8349 328.89 90.8067 328.615C90.673 327.312 90.5494 326.006 90.436 324.697C90.4122 324.422 90.1701 324.219 89.8952 324.242C89.7012 321.951 89.5383 319.65 89.4069 317.341C89.6824 317.325 89.8934 317.09 89.8782 316.814C89.8064 315.505 89.7446 314.193 89.6931 312.879C89.6823 312.603 89.4502 312.388 89.1745 312.399C89.0891 310.103 89.0349 307.799 89.0122 305.487C89.2881 305.485 89.5099 305.259 89.5078 304.983C89.5026 304.323 89.5 303.662 89.5 303C89.5 302.338 89.5026 301.677 89.5078 301.017C89.5099 300.741 89.2881 300.515 89.0122 300.513C89.0349 298.201 89.0891 295.897 89.1745 293.601C89.4502 293.612 89.6823 293.397 89.6931 293.121C89.7446 291.807 89.8064 290.495 89.8782 289.186C89.8934 288.91 89.6824 288.675 89.4069 288.659C89.5383 286.35 89.7012 284.049 89.8952 281.758C90.1701 281.781 90.4122 281.578 90.436 281.303C90.5494 279.994 90.673 278.688 90.8067 277.385C90.8349 277.11 90.6353 276.865 90.3609 276.837C90.6016 274.536 90.8737 272.244 91.1768 269.963C91.4503 269.999 91.7018 269.807 91.7387 269.534C91.9143 268.232 92.1001 266.933 92.2958 265.637C92.3371 265.364 92.1494 265.109 91.8766 265.068C92.2267 262.782 92.6078 260.507 93.0197 258.243C93.2911 258.292 93.5514 258.113 93.6014 257.841C93.8392 256.548 94.0871 255.259 94.345 253.973C94.3992 253.702 94.224 253.439 93.9535 253.384C94.4123 251.12 94.9019 248.866 95.4218 246.625C95.6905 246.687 95.9592 246.52 96.0221 246.252C96.3218 244.971 96.6315 243.694 96.951 242.421C97.0182 242.154 96.8558 241.882 96.5883 241.815C97.155 239.576 97.752 237.35 98.379 235.136C98.6444 235.211 98.9208 235.057 98.9966 234.792C99.3576 233.527 99.7285 232.266 100.109 231.009C100.189 230.745 100.04 230.466 99.7758 230.386C100.449 228.178 101.153 225.983 101.885 223.802C102.147 223.89 102.43 223.75 102.519 223.489C102.94 222.242 103.371 221 103.812 219.762C103.905 219.502 103.769 219.217 103.509 219.124C104.288 216.952 105.095 214.794 105.932 212.65C106.189 212.751 106.479 212.624 106.58 212.367C107.061 211.142 107.551 209.922 108.051 208.707C108.156 208.452 108.034 208.16 107.779 208.054C108.661 205.923 109.571 203.807 110.51 201.705C110.762 201.818 111.057 201.706 111.171 201.454C111.71 200.253 112.258 199.058 112.816 197.868C112.933 197.618 112.826 197.32 112.576 197.203C113.558 195.117 114.569 193.046 115.607 190.992C115.854 191.117 116.154 191.019 116.279 190.773C116.875 189.6 117.481 188.432 118.095 187.269C118.224 187.025 118.13 186.723 117.887 186.594C118.968 184.557 120.076 182.538 121.212 180.536C121.451 180.672 121.756 180.588 121.893 180.348C122.545 179.205 123.205 178.067 123.874 176.935C124.014 176.697 123.936 176.391 123.698 176.25C124.875 174.268 126.079 172.304 127.308 170.358C127.541 170.506 127.85 170.437 127.998 170.204C128.703 169.093 129.417 167.987 130.14 166.888C130.291 166.658 130.227 166.348 129.997 166.196C131.266 164.273 132.562 162.368 133.883 160.482C134.109 160.641 134.42 160.587 134.579 160.361C135.336 159.285 136.102 158.215 136.876 157.151C137.038 156.928 136.989 156.615 136.766 156.453C138.126 154.592 139.51 152.751 140.919 150.93C141.137 151.099 141.451 151.06 141.621 150.842C142.428 149.803 143.244 148.77 144.067 147.744C144.24 147.529 144.206 147.215 143.991 147.042C145.437 145.248 146.907 143.475 148.401 141.722C148.611 141.901 148.926 141.877 149.106 141.667C149.961 140.668 150.825 139.675 151.696 138.689C151.879 138.482 151.86 138.167 151.653 137.984C153.182 136.261 154.734 134.559 156.31 132.879C156.511 133.068 156.827 133.058 157.016 132.857C157.919 131.899 158.828 130.949 159.745 130.005C159.937 129.807 159.933 129.491 159.735 129.298C161.344 127.65 162.975 126.023 164.629 124.42C164.821 124.618 165.137 124.623 165.335 124.432C166.282 123.517 167.235 122.611 168.196 121.712C168.397 121.523 168.408 121.207 168.22 121.005C169.904 119.435 171.61 117.887 173.338 116.363C173.52 116.57 173.836 116.591 174.043 116.409C175.032 115.54 176.027 114.68 177.029 113.827C177.24 113.648 177.265 113.333 177.086 113.122C178.843 111.634 180.621 110.169 182.419 108.728C182.591 108.943 182.905 108.979 183.121 108.806C184.149 107.986 185.184 107.173 186.226 106.369C186.444 106.2 186.485 105.886 186.316 105.668C188.141 104.264 189.986 102.885 191.851 101.531C192.013 101.754 192.325 101.804 192.549 101.642C193.614 100.872 194.687 100.109 195.765 99.3548C195.991 99.1966 196.047 98.8852 195.889 98.6589C197.778 97.3432 199.686 96.053 201.613 94.7887C201.764 95.0195 202.074 95.0843 202.305 94.9334C203.406 94.2141 204.513 93.5032 205.626 92.8009C205.86 92.6537 205.93 92.3452 205.783 92.1117C207.732 90.8873 209.699 89.6891 211.684 88.5175C211.824 88.7553 212.131 88.8347 212.369 88.6949C213.502 88.0288 214.642 87.3714 215.787 86.7228C216.027 86.5868 216.112 86.282 215.976 86.0418C217.981 84.9116 220.003 83.8083 222.042 82.7323C222.171 82.9765 222.473 83.0704 222.717 82.9421C223.881 82.3308 225.051 81.7284 226.226 81.1351C226.472 81.0107 226.571 80.7103 226.447 80.4639C228.503 79.4305 230.576 78.4248 232.664 77.4471C232.781 77.6971 233.078 77.8053 233.329 77.6888C234.52 77.1338 235.717 76.588 236.919 76.0514C237.171 75.9389 237.284 75.6435 237.172 75.3915C239.275 74.4576 241.393 73.5518 243.527 72.6747C243.631 72.93 243.923 73.0523 244.178 72.9479C245.395 72.4506 246.616 71.9627 247.842 71.4842C248.099 71.3838 248.226 71.0942 248.126 70.837C250.272 70.0048 252.431 69.2012 254.605 68.4269C254.697 68.6869 254.982 68.823 255.243 68.7309C256.481 68.2925 257.724 67.8637 258.971 67.4444C259.233 67.3565 259.374 67.0732 259.286 66.8116C261.469 66.0829 263.664 65.3835 265.873 64.7138C265.953 64.9779 266.232 65.1275 266.496 65.048C267.754 64.6696 269.015 64.3007 270.281 63.9417C270.546 63.8664 270.701 63.5902 270.626 63.3247C272.84 62.7012 275.068 62.1075 277.307 61.544C277.374 61.8117 277.645 61.9744 277.913 61.9076C279.187 61.5899 280.464 61.282 281.745 60.9839C282.014 60.9214 282.181 60.6529 282.119 60.3841C284.361 59.8672 286.615 59.3805 288.88 58.9243C288.934 59.1949 289.197 59.3704 289.468 59.3165C290.754 59.0601 292.044 58.8136 293.338 58.5772C293.609 58.5275 293.789 58.2673 293.74 57.9959C296.005 57.5864 298.28 57.2075 300.566 56.8596C300.607 57.1324 300.862 57.3203 301.134 57.2793C302.43 57.0846 303.73 56.9 305.032 56.7254C305.306 56.6887 305.498 56.4373 305.461 56.1638C307.743 55.8625 310.035 55.592 312.336 55.3527C312.365 55.6272 312.61 55.8269 312.884 55.7989C314.187 55.666 315.493 55.5432 316.802 55.4304C317.077 55.4067 317.281 55.1648 317.257 54.8898C319.549 54.697 321.85 54.535 324.159 54.4044C324.175 54.6799 324.41 54.891 324.686 54.876C325.995 54.8045 327.307 54.7432 328.621 54.692C328.897 54.6813 329.112 54.4491 329.101 54.1734C331.397 54.0885 333.701 54.0346 336.013 54.0121C336.015 54.288 336.241 54.5099 336.517 54.5077C337.177 54.5026 337.838 54.5 338.5 54.5C339.162 54.5 339.823 54.5026 340.483 54.5077C340.759 54.5099 340.985 54.288 340.987 54.0121C343.299 54.0346 345.603 54.0885 347.899 54.1734C347.888 54.4491 348.103 54.6813 348.379 54.692C349.693 54.7432 351.005 54.8045 352.314 54.876C352.59 54.891 352.826 54.6799 352.841 54.4044C355.15 54.535 357.451 54.697 359.743 54.8898C359.719 55.1648 359.923 55.4067 360.198 55.4304C361.507 55.5432 362.813 55.666 364.116 55.7989C364.39 55.8269 364.635 55.6272 364.664 55.3527C366.965 55.592 369.257 55.8625 371.539 56.1638C371.502 56.4373 371.694 56.6887 371.968 56.7254C373.27 56.9 374.57 57.0846 375.866 57.2793C376.139 57.3203 376.393 57.1324 376.434 56.8596C378.72 57.2075 380.995 57.5865 383.26 57.9959C383.211 58.2673 383.391 58.5275 383.662 58.5772C384.956 58.8137 386.246 59.0601 387.532 59.3165C387.803 59.3704 388.066 59.1949 388.12 58.9243C390.385 59.3805 392.639 59.8672 394.881 60.3841C394.819 60.6529 394.986 60.9214 395.255 60.9839C396.536 61.282 397.813 61.5899 399.087 61.9076C399.355 61.9744 399.626 61.8117 399.693 61.544C401.932 62.1075 404.16 62.7012 406.374 63.3247C406.299 63.5902 406.454 63.8664 406.719 63.9417C407.985 64.3008 409.247 64.6696 410.504 65.048C410.768 65.1276 411.047 64.9779 411.127 64.7138C413.336 65.3835 415.531 66.0829 417.714 66.8116C417.626 67.0732 417.767 67.3565 418.029 67.4444C419.276 67.8637 420.519 68.2926 421.757 68.7309C422.018 68.823 422.303 68.6869 422.395 68.4269C424.569 69.2012 426.728 70.0048 428.874 70.8371C428.774 71.0942 428.901 71.3838 429.158 71.4842C430.384 71.9627 431.605 72.4506 432.822 72.9479C433.077 73.0523 433.369 72.93 433.473 72.6747C435.607 73.5518 437.725 74.4576 439.828 75.3915C439.716 75.6435 439.829 75.9389 440.081 76.0514C441.283 76.588 442.48 77.1338 443.671 77.6888C443.922 77.8053 444.219 77.6971 444.336 77.4471C446.424 78.4248 448.497 79.4306 450.553 80.4639C450.429 80.7103 450.528 81.0107 450.774 81.1351C451.949 81.7285 453.119 82.3308 454.283 82.9421C454.527 83.0704 454.829 82.9765 454.957 82.7323C456.997 83.8083 459.019 84.9116 461.024 86.0418C460.888 86.282 460.973 86.5868 461.213 86.7228C462.358 87.3714 463.498 88.0288 464.632 88.6949C464.869 88.8347 465.176 88.7553 465.316 88.5175C467.301 89.6891 469.268 90.8873 471.217 92.1117C471.07 92.3452 471.14 92.6537 471.374 92.8009C472.487 93.5032 473.594 94.2141 474.695 94.9334C474.926 95.0843 475.236 95.0195 475.387 94.7887C477.314 96.053 479.222 97.3433 481.111 98.6589C480.953 98.8852 481.009 99.1967 481.235 99.3548C482.313 100.109 483.386 100.872 484.451 101.643C484.675 101.804 484.987 101.754 485.149 101.531C487.014 102.885 488.859 104.264 490.684 105.668C490.515 105.886 490.556 106.2 490.774 106.369C491.816 107.173 492.851 107.986 493.879 108.806C494.095 108.979 494.409 108.943 494.581 108.728C496.379 110.169 498.157 111.634 499.914 113.122C499.735 113.333 499.76 113.648 499.971 113.827C500.973 114.68 501.968 115.54 502.957 116.409C503.164 116.591 503.48 116.57 503.662 116.363C505.39 117.887 507.096 119.435 508.78 121.005C508.592 121.207 508.603 121.523 508.804 121.712C509.765 122.611 510.718 123.517 511.665 124.432C511.863 124.623 512.179 124.618 512.371 124.42C514.025 126.023 515.656 127.65 517.265 129.298C517.067 129.491 517.063 129.807 517.255 130.005C518.172 130.949 519.081 131.899 519.984 132.857C520.173 133.058 520.489 133.068 520.69 132.879C522.266 134.559 523.818 136.261 525.347 137.984C525.141 138.167 525.121 138.482 525.304 138.689C526.175 139.675 527.039 140.668 527.895 141.667C528.074 141.877 528.389 141.902 528.599 141.722C530.093 143.475 531.564 145.248 533.009 147.042C532.794 147.215 532.76 147.529 532.933 147.744C533.756 148.77 534.572 149.803 535.379 150.842C535.549 151.06 535.863 151.099 536.081 150.93C537.49 152.751 538.874 154.592 540.234 156.453C540.011 156.615 539.962 156.928 540.124 157.151C540.898 158.215 541.664 159.285 542.421 160.361C542.58 160.587 542.891 160.641 543.117 160.482C544.438 162.368 545.734 164.273 547.003 166.196C546.773 166.348 546.709 166.658 546.861 166.888C547.583 167.987 548.297 169.093 549.002 170.204C549.15 170.437 549.459 170.506 549.692 170.358C550.921 172.304 552.125 174.269 553.302 176.25C553.064 176.391 552.986 176.697 553.126 176.935C553.795 178.067 554.455 179.205 555.107 180.349C555.244 180.588 555.549 180.672 555.788 180.536C556.924 182.538 558.032 184.557 559.113 186.594C558.87 186.723 558.776 187.025 558.905 187.269C559.519 188.432 560.125 189.6 560.721 190.773C560.846 191.019 561.146 191.117 561.393 190.993C562.431 193.047 563.442 195.117 564.424 197.203C564.174 197.32 564.067 197.618 564.184 197.868C564.742 199.058 565.29 200.253 565.829 201.454C565.943 201.706 566.238 201.818 566.49 201.705C567.429 203.807 568.339 205.923 569.221 208.055C568.966 208.16 568.844 208.452 568.949 208.707C569.449 209.922 569.939 211.142 570.42 212.367C570.521 212.624 570.811 212.751 571.068 212.65C571.905 214.794 572.712 216.952 573.491 219.124C573.231 219.217 573.095 219.503 573.188 219.762C573.629 221 574.06 222.242 574.481 223.489C574.57 223.75 574.853 223.89 575.115 223.802C575.848 225.983 576.551 228.178 577.224 230.386C576.96 230.466 576.811 230.745 576.891 231.009C577.272 232.266 577.642 233.527 578.003 234.792C578.079 235.057 578.356 235.211 578.621 235.136C579.248 237.35 579.845 239.576 580.412 241.815C580.144 241.882 579.982 242.154 580.049 242.421C580.369 243.694 580.678 244.971 580.978 246.252C581.041 246.52 581.31 246.687 581.578 246.625C582.098 248.867 582.588 251.12 583.047 253.384C582.776 253.439 582.601 253.702 582.655 253.973C582.913 255.259 583.161 256.548 583.399 257.841C583.449 258.113 583.709 258.292 583.98 258.243C584.392 260.507 584.773 262.782 585.123 265.068C584.851 265.109 584.663 265.364 584.704 265.637C584.9 266.933 585.086 268.232 585.261 269.534C585.298 269.807 585.55 269.999 585.823 269.963C586.126 272.244 586.398 274.536 586.639 276.837C586.365 276.865 586.165 277.11 586.193 277.385C586.327 278.688 586.451 279.994 586.564 281.303C586.588 281.578 586.83 281.781 587.105 281.758C587.299 284.049 587.462 286.35 587.593 288.659C587.318 288.675 587.107 288.91 587.122 289.186C587.194 290.495 587.255 291.807 587.307 293.121C587.318 293.397 587.55 293.612 587.826 293.601Z" stroke="black" stroke-miterlimit="4.81765" stroke-linecap="round" stroke-dasharray="4 8"/>
<path d="M176.644 288.536H185.38C187.22 288.536 188.604 288.992 189.532 289.904C190.46 290.8 190.924 292.064 190.924 293.696C190.924 296 189.964 297.536 188.044 298.304L191.404 305H187.636L184.732 298.856H180.124V305H176.644V288.536ZM185.068 295.952C185.82 295.952 186.396 295.752 186.796 295.352C187.196 294.952 187.396 294.4 187.396 293.696C187.396 292.992 187.196 292.448 186.796 292.064C186.396 291.68 185.82 291.488 185.068 291.488H180.124V295.952H185.068ZM196.364 288.536H209.3V291.488H199.844V295.112H208.244V298.064H199.844V302.048H209.444V305H196.364V288.536ZM214.772 288.536H218.156L224.492 297.488C224.684 297.76 225.004 298.296 225.452 299.096L225.572 299.024L225.5 297.632V288.536H228.884V305H225.5L219.14 295.976C218.836 295.544 218.524 295.016 218.204 294.392L218.084 294.464C218.132 295.152 218.156 295.632 218.156 295.904V305H214.772V288.536ZM234.492 288.536H247.428V291.488H237.972V295.112H246.372V298.064H237.972V302.048H247.572V305H234.492V288.536ZM251.34 288.536H255.06L257.436 298.664C257.548 299.112 257.676 299.88 257.82 300.968H257.94C258.084 299.88 258.212 299.112 258.324 298.664L260.748 288.536H264.948L267.348 298.664C267.444 299.08 267.572 299.848 267.732 300.968H267.852C267.98 299.944 268.108 299.176 268.236 298.664L270.684 288.536H273.9L269.532 305H265.764L263.052 294.512C262.908 293.984 262.772 293.208 262.644 292.184H262.548C262.388 293.288 262.252 294.064 262.14 294.512L259.476 305H255.708L251.34 288.536ZM281.524 288.536H285.892L292.324 305H288.532L287.356 301.856H279.868L278.692 305H275.092L281.524 288.536ZM286.252 298.952L284.692 294.776C284.5 294.264 284.156 293.184 283.66 291.536H283.54C283.044 293.184 282.7 294.264 282.508 294.776L280.948 298.952H286.252ZM296.372 288.536H305.804C306.668 288.536 307.452 288.712 308.156 289.064C308.86 289.4 309.412 289.88 309.812 290.504C310.212 291.112 310.412 291.816 310.412 292.616C310.412 293.528 310.156 294.32 309.644 294.992C309.148 295.648 308.508 296.104 307.724 296.36V296.456C308.652 296.632 309.404 297.088 309.98 297.824C310.572 298.544 310.868 299.4 310.868 300.392C310.868 301.88 310.388 303.024 309.428 303.824C308.484 304.608 307.276 305 305.804 305H296.372V288.536ZM304.82 295.112C305.46 295.112 305.956 294.952 306.308 294.632C306.66 294.296 306.836 293.872 306.836 293.36C306.836 292.752 306.668 292.288 306.332 291.968C306.012 291.648 305.564 291.488 304.988 291.488H299.876V295.112H304.82ZM305.228 302.048C305.836 302.048 306.332 301.872 306.716 301.52C307.1 301.168 307.292 300.664 307.292 300.008C307.292 299.416 307.1 298.936 306.716 298.568C306.332 298.2 305.772 298.016 305.036 298.016H299.876V302.048H305.228ZM316.092 288.536H319.572V301.976H328.452V305H316.092V288.536ZM333.164 288.536H346.1V291.488H336.644V295.112H345.044V298.064H336.644V302.048H346.244V305H333.164V288.536ZM207.436 314.536H220.372V317.488H210.916V321.112H219.316V324.064H210.916V328.048H220.516V331H207.436V314.536ZM225.844 314.536H229.228L235.564 323.488C235.756 323.76 236.076 324.296 236.524 325.096L236.644 325.024L236.572 323.632V314.536H239.956V331H236.572L230.212 321.976C229.908 321.544 229.596 321.016 229.276 320.392L229.156 320.464C229.204 321.152 229.228 321.632 229.228 321.904V331H225.844V314.536ZM245.564 314.536H258.5V317.488H249.044V321.112H257.444V324.064H249.044V328.048H258.644V331H245.564V314.536ZM263.972 314.536H272.708C274.548 314.536 275.932 314.992 276.86 315.904C277.788 316.8 278.252 318.064 278.252 319.696C278.252 322 277.292 323.536 275.372 324.304L278.732 331H274.964L272.06 324.856H267.452V331H263.972V314.536ZM272.396 321.952C273.148 321.952 273.724 321.752 274.124 321.352C274.524 320.952 274.724 320.4 274.724 319.696C274.724 318.992 274.524 318.448 274.124 318.064C273.724 317.68 273.148 317.488 272.396 317.488H267.452V321.952H272.396ZM291.06 331.288C288.516 331.288 286.548 330.592 285.156 329.2C283.78 327.808 283.092 325.664 283.092 322.768C283.092 319.936 283.828 317.808 285.3 316.384C286.772 314.96 288.852 314.248 291.54 314.248C292.964 314.248 294.26 314.472 295.428 314.92C296.612 315.352 297.548 316.016 298.236 316.912C298.94 317.792 299.292 318.872 299.292 320.152H295.692C295.692 319.256 295.292 318.544 294.492 318.016C293.708 317.472 292.764 317.2 291.66 317.2C289.98 317.2 288.724 317.648 287.892 318.544C287.076 319.44 286.668 320.728 286.668 322.408V323.128C286.668 324.888 287.044 326.2 287.796 327.064C288.564 327.912 289.732 328.336 291.3 328.336C292.596 328.336 293.668 328.032 294.516 327.424C295.364 326.8 295.796 325.96 295.812 324.904H290.82V322.048H299.292V331H296.892L296.58 329.176C295.812 329.912 295.004 330.448 294.156 330.784C293.308 331.12 292.276 331.288 291.06 331.288ZM309.452 324.352L303.164 314.536H307.124L311.228 321.256H311.348L315.404 314.536H319.172L312.932 324.352V331H309.452V324.352Z" fill="black"/>
<path d="M648.303 242.288C645.759 242.288 643.791 241.592 642.399 240.2C641.023 238.808 640.335 236.664 640.335 233.768C640.335 230.936 641.071 228.808 642.543 227.384C644.015 225.96 646.095 225.248 648.783 225.248C650.207 225.248 651.503 225.472 652.671 225.92C653.855 226.352 654.791 227.016 655.479 227.912C656.183 228.792 656.535 229.872 656.535 231.152H652.935C652.935 230.256 652.535 229.544 651.735 229.016C650.951 228.472 650.007 228.2 648.903 228.2C647.223 228.2 645.967 228.648 645.135 229.544C644.319 230.44 643.911 231.728 643.911 233.408V234.128C643.911 235.888 644.287 237.2 645.039 238.064C645.807 238.912 646.975 239.336 648.543 239.336C649.839 239.336 650.911 239.032 651.759 238.424C652.607 237.8 653.039 236.96 653.055 235.904H648.063V233.048H656.535V242H654.135L653.823 240.176C653.055 240.912 652.247 241.448 651.399 241.784C650.551 242.12 649.519 242.288 648.303 242.288ZM662.015 225.536H670.751C672.591 225.536 673.975 225.992 674.903 226.904C675.831 227.8 676.295 229.064 676.295 230.696C676.295 233 675.335 234.536 673.415 235.304L676.775 242H673.007L670.103 235.856H665.495V242H662.015V225.536ZM670.439 232.952C671.191 232.952 671.767 232.752 672.167 232.352C672.567 231.952 672.767 231.4 672.767 230.696C672.767 229.992 672.567 229.448 672.167 229.064C671.767 228.68 671.191 228.488 670.439 228.488H665.495V232.952H670.439ZM681.735 225.536H685.215V242H681.735V225.536ZM690.815 225.536H697.631C700.143 225.536 702.079 226.224 703.439 227.6C704.815 228.96 705.503 231.016 705.503 233.768C705.503 236.52 704.815 238.584 703.439 239.96C702.079 241.32 700.143 242 697.631 242H690.815V225.536ZM697.631 239.048C699.039 239.048 700.103 238.624 700.823 237.776C701.559 236.912 701.927 235.696 701.927 234.128V233.408C701.927 231.84 701.559 230.632 700.823 229.784C700.103 228.92 699.039 228.488 697.631 228.488H694.295V239.048H697.631ZM725.927 242.288C724.663 242.288 723.503 242.096 722.447 241.712C721.407 241.312 720.575 240.728 719.951 239.96C719.327 239.192 719.015 238.264 719.015 237.176L719.039 236.648H722.567L722.543 237.032C722.543 237.736 722.855 238.296 723.479 238.712C724.103 239.128 724.975 239.336 726.095 239.336C727.279 239.336 728.135 239.184 728.663 238.88C729.191 238.56 729.455 238.136 729.455 237.608C729.455 237.144 729.279 236.76 728.927 236.456C728.591 236.136 728.159 235.888 727.631 235.712C727.119 235.52 726.407 235.296 725.495 235.04C724.199 234.672 723.151 234.32 722.351 233.984C721.551 233.648 720.863 233.152 720.287 232.496C719.711 231.824 719.423 230.944 719.423 229.856C719.423 228.352 720.031 227.208 721.247 226.424C722.463 225.64 724.079 225.248 726.095 225.248C727.999 225.248 729.551 225.656 730.751 226.472C731.967 227.272 732.575 228.48 732.575 230.096V230.384H729.119V230.168C729.119 229.56 728.839 229.08 728.279 228.728C727.735 228.376 726.991 228.2 726.047 228.2C725.039 228.2 724.263 228.336 723.719 228.608C723.191 228.88 722.927 229.256 722.927 229.736C722.927 230.104 723.087 230.424 723.407 230.696C723.727 230.952 724.127 231.168 724.607 231.344C725.087 231.504 725.767 231.704 726.647 231.944C727.959 232.296 729.031 232.648 729.863 233C730.711 233.336 731.439 233.84 732.047 234.512C732.655 235.184 732.959 236.064 732.959 237.152C732.959 238.912 732.327 240.208 731.063 241.04C729.815 241.872 728.103 242.288 725.927 242.288ZM742.007 228.536H736.919V225.536H750.575V228.536H745.487V242H742.007V228.536ZM762.401 242.288C759.761 242.288 757.713 241.584 756.257 240.176C754.801 238.752 754.073 236.616 754.073 233.768C754.073 230.92 754.801 228.792 756.257 227.384C757.713 225.96 759.761 225.248 762.401 225.248C765.057 225.248 767.113 225.96 768.569 227.384C770.025 228.792 770.753 230.92 770.753 233.768C770.753 236.616 770.025 238.752 768.569 240.176C767.113 241.584 765.057 242.288 762.401 242.288ZM762.401 239.336C763.969 239.336 765.153 238.888 765.953 237.992C766.769 237.08 767.177 235.792 767.177 234.128V233.408C767.177 231.744 766.769 230.464 765.953 229.568C765.153 228.656 763.969 228.2 762.401 228.2C760.833 228.2 759.649 228.656 758.849 229.568C758.049 230.464 757.649 231.744 757.649 233.408V234.128C757.649 235.792 758.049 237.08 758.849 237.992C759.649 238.888 760.833 239.336 762.401 239.336ZM775.753 225.536H784.489C786.329 225.536 787.713 225.992 788.641 226.904C789.569 227.8 790.033 229.064 790.033 230.696C790.033 233 789.073 234.536 787.153 235.304L790.513 242H786.745L783.841 235.856H779.233V242H775.753V225.536ZM784.177 232.952C784.929 232.952 785.505 232.752 785.905 232.352C786.305 231.952 786.505 231.4 786.505 230.696C786.505 229.992 786.305 229.448 785.905 229.064C785.505 228.68 784.929 228.488 784.177 228.488H779.233V232.952H784.177ZM800.345 225.536H804.713L811.145 242H807.353L806.177 238.856H798.689L797.513 242H793.913L800.345 225.536ZM805.073 235.952L803.513 231.776C803.321 231.264 802.977 230.184 802.481 228.536H802.361C801.865 230.184 801.521 231.264 801.329 231.776L799.769 235.952H805.073ZM822.561 242.288C820.017 242.288 818.049 241.592 816.657 240.2C815.281 238.808 814.593 236.664 814.593 233.768C814.593 230.936 815.329 228.808 816.801 227.384C818.273 225.96 820.353 225.248 823.041 225.248C824.465 225.248 825.761 225.472 826.929 225.92C828.113 226.352 829.049 227.016 829.737 227.912C830.441 228.792 830.793 229.872 830.793 231.152H827.193C827.193 230.256 826.793 229.544 825.993 229.016C825.209 228.472 824.265 228.2 823.161 228.2C821.481 228.2 820.225 228.648 819.393 229.544C818.577 230.44 818.169 231.728 818.169 233.408V234.128C818.169 235.888 818.545 237.2 819.297 238.064C820.065 238.912 821.233 239.336 822.801 239.336C824.097 239.336 825.169 239.032 826.017 238.424C826.865 237.8 827.297 236.96 827.313 235.904H822.321V233.048H830.793V242H828.393L828.081 240.176C827.313 240.912 826.505 241.448 825.657 241.784C824.809 242.12 823.777 242.288 822.561 242.288ZM836.273 225.536H849.209V228.488H839.753V232.112H848.153V235.064H839.753V239.048H849.353V242H836.273V225.536ZM654.728 267.536H667.664V270.488H658.208V274.112H666.608V277.064H658.208V281.048H667.808V284H654.728V267.536ZM673.136 267.536H676.616V280.976H685.496V284H673.136V267.536ZM690.208 267.536H703.144V270.488H693.688V274.112H702.088V277.064H693.688V281.048H703.288V284H690.208V267.536ZM715.984 284.288C710.672 284.288 708.016 281.448 708.016 275.768C708.016 272.92 708.712 270.792 710.104 269.384C711.496 267.96 713.456 267.248 715.984 267.248C717.376 267.248 718.624 267.488 719.728 267.968C720.848 268.432 721.728 269.152 722.368 270.128C723.024 271.088 723.352 272.264 723.352 273.656H719.776C719.776 272.584 719.432 271.744 718.744 271.136C718.056 270.512 717.16 270.2 716.056 270.2C714.552 270.2 713.432 270.648 712.696 271.544C711.96 272.44 711.592 273.728 711.592 275.408V276.128C711.592 279.6 713.08 281.336 716.056 281.336C717.224 281.336 718.152 281.032 718.84 280.424C719.544 279.816 719.896 278.976 719.896 277.904H723.352C723.352 279.312 723.032 280.496 722.392 281.456C721.752 282.4 720.88 283.112 719.776 283.592C718.672 284.056 717.408 284.288 715.984 284.288ZM732.32 270.536H727.232V267.536H740.888V270.536H735.8V284H732.32V270.536ZM745.408 267.536H754.144C755.984 267.536 757.368 267.992 758.296 268.904C759.224 269.8 759.688 271.064 759.688 272.696C759.688 275 758.728 276.536 756.808 277.304L760.168 284H756.4L753.496 277.856H748.888V284H745.408V267.536ZM753.832 274.952C754.584 274.952 755.16 274.752 755.56 274.352C755.96 273.952 756.16 273.4 756.16 272.696C756.16 271.992 755.96 271.448 755.56 271.064C755.16 270.68 754.584 270.488 753.832 270.488H748.888V274.952H753.832ZM765.128 267.536H768.608V284H765.128V267.536ZM774.208 267.536H786.136V270.488H777.688V274.544H785.248V277.496H777.688V284H774.208V267.536ZM791.28 267.536H794.76V284H791.28V267.536ZM800.36 267.536H813.296V270.488H803.84V274.112H812.24V277.064H803.84V281.048H813.44V284H800.36V267.536ZM818.767 267.536H825.583C828.095 267.536 830.031 268.224 831.391 269.6C832.767 270.96 833.455 273.016 833.455 275.768C833.455 278.52 832.767 280.584 831.391 281.96C830.031 283.32 828.095 284 825.583 284H818.767V267.536ZM825.583 281.048C826.991 281.048 828.055 280.624 828.775 279.776C829.511 278.912 829.879 277.696 829.879 276.128V275.408C829.879 273.84 829.511 272.632 828.775 271.784C828.055 270.92 826.991 270.488 825.583 270.488H822.247V281.048H825.583ZM620.237 296.536H615.149V293.536H628.805V296.536H623.717V310H620.237V296.536ZM633.325 293.536H642.061C643.901 293.536 645.285 293.992 646.213 294.904C647.141 295.8 647.605 297.064 647.605 298.696C647.605 301 646.645 302.536 644.725 303.304L648.085 310H644.317L641.413 303.856H636.805V310H633.325V293.536ZM641.749 300.952C642.501 300.952 643.077 300.752 643.477 300.352C643.877 299.952 644.077 299.4 644.077 298.696C644.077 297.992 643.877 297.448 643.477 297.064C643.077 296.68 642.501 296.488 641.749 296.488H636.805V300.952H641.749ZM657.917 293.536H662.285L668.717 310H664.925L663.749 306.856H656.261L655.085 310H651.485L657.917 293.536ZM662.645 303.952L661.085 299.776C660.893 299.264 660.549 298.184 660.053 296.536H659.933C659.437 298.184 659.093 299.264 658.901 299.776L657.341 303.952H662.645ZM672.766 293.536H676.15L682.486 302.488C682.678 302.76 682.998 303.296 683.446 304.096L683.566 304.024L683.494 302.632V293.536H686.878V310H683.494L677.134 300.976C676.83 300.544 676.518 300.016 676.198 299.392L676.078 299.464C676.126 300.152 676.15 300.632 676.15 300.904V310H672.766V293.536ZM698.798 310.288C697.534 310.288 696.374 310.096 695.318 309.712C694.278 309.312 693.446 308.728 692.822 307.96C692.198 307.192 691.886 306.264 691.886 305.176L691.91 304.648H695.438L695.414 305.032C695.414 305.736 695.726 306.296 696.35 306.712C696.974 307.128 697.846 307.336 698.966 307.336C700.15 307.336 701.006 307.184 701.534 306.88C702.062 306.56 702.326 306.136 702.326 305.608C702.326 305.144 702.15 304.76 701.798 304.456C701.462 304.136 701.03 303.888 700.502 303.712C699.99 303.52 699.278 303.296 698.366 303.04C697.07 302.672 696.022 302.32 695.222 301.984C694.422 301.648 693.734 301.152 693.158 300.496C692.582 299.824 692.294 298.944 692.294 297.856C692.294 296.352 692.902 295.208 694.118 294.424C695.334 293.64 696.95 293.248 698.966 293.248C700.87 293.248 702.422 293.656 703.622 294.472C704.838 295.272 705.446 296.48 705.446 298.096V298.384H701.99V298.168C701.99 297.56 701.71 297.08 701.15 296.728C700.606 296.376 699.862 296.2 698.918 296.2C697.91 296.2 697.134 296.336 696.59 296.608C696.062 296.88 695.798 297.256 695.798 297.736C695.798 298.104 695.958 298.424 696.278 298.696C696.598 298.952 696.998 299.168 697.478 299.344C697.958 299.504 698.638 299.704 699.518 299.944C700.83 300.296 701.902 300.648 702.734 301C703.582 301.336 704.31 301.84 704.918 302.512C705.526 303.184 705.83 304.064 705.83 305.152C705.83 306.912 705.198 308.208 703.934 309.04C702.686 309.872 700.974 310.288 698.798 310.288ZM710.894 293.536H718.742C720.582 293.536 721.966 294.008 722.894 294.952C723.822 295.88 724.286 297.2 724.286 298.912C724.286 300.624 723.798 301.96 722.822 302.92C721.862 303.864 720.422 304.336 718.502 304.336H714.374V310H710.894V293.536ZM718.43 301.384C719.182 301.384 719.758 301.168 720.158 300.736C720.558 300.304 720.758 299.696 720.758 298.912C720.758 298.144 720.558 297.552 720.158 297.136C719.758 296.704 719.182 296.488 718.43 296.488H714.374V301.384H718.43ZM737.03 310.288C734.39 310.288 732.342 309.584 730.886 308.176C729.43 306.752 728.702 304.616 728.702 301.768C728.702 298.92 729.43 296.792 730.886 295.384C732.342 293.96 734.39 293.248 737.03 293.248C739.686 293.248 741.742 293.96 743.198 295.384C744.654 296.792 745.382 298.92 745.382 301.768C745.382 304.616 744.654 306.752 743.198 308.176C741.742 309.584 739.686 310.288 737.03 310.288ZM737.03 307.336C738.598 307.336 739.782 306.888 740.582 305.992C741.398 305.08 741.806 303.792 741.806 302.128V301.408C741.806 299.744 741.398 298.464 740.582 297.568C739.782 296.656 738.598 296.2 737.03 296.2C735.462 296.2 734.278 296.656 733.478 297.568C732.678 298.464 732.278 299.744 732.278 301.408V302.128C732.278 303.792 732.678 305.08 733.478 305.992C734.278 306.888 735.462 307.336 737.03 307.336ZM750.381 293.536H759.117C760.957 293.536 762.341 293.992 763.269 294.904C764.197 295.8 764.661 297.064 764.661 298.696C764.661 301 763.701 302.536 761.781 303.304L765.141 310H761.373L758.469 303.856H753.861V310H750.381V293.536ZM758.805 300.952C759.557 300.952 760.133 300.752 760.533 300.352C760.933 299.952 761.133 299.4 761.133 298.696C761.133 297.992 760.933 297.448 760.533 297.064C760.133 296.68 759.557 296.488 758.805 296.488H753.861V300.952H758.805ZM774.086 296.536H768.998V293.536H782.654V296.536H777.566V310H774.086V296.536ZM790.264 293.536H794.632L801.064 310H797.272L796.096 306.856H788.608L787.432 310H783.832L790.264 293.536ZM794.992 303.952L793.432 299.776C793.24 299.264 792.896 298.184 792.4 296.536H792.28C791.784 298.184 791.44 299.264 791.248 299.776L789.688 303.952H794.992ZM807.315 296.536H802.227V293.536H815.883V296.536H810.795V310H807.315V296.536ZM820.403 293.536H823.883V310H820.403V293.536ZM837.211 310.288C834.571 310.288 832.523 309.584 831.067 308.176C829.611 306.752 828.883 304.616 828.883 301.768C828.883 298.92 829.611 296.792 831.067 295.384C832.523 293.96 834.571 293.248 837.211 293.248C839.867 293.248 841.923 293.96 843.379 295.384C844.835 296.792 845.563 298.92 845.563 301.768C845.563 304.616 844.835 306.752 843.379 308.176C841.923 309.584 839.867 310.288 837.211 310.288ZM837.211 307.336C838.779 307.336 839.963 306.888 840.763 305.992C841.579 305.08 841.987 303.792 841.987 302.128V301.408C841.987 299.744 841.579 298.464 840.763 297.568C839.963 296.656 838.779 296.2 837.211 296.2C835.643 296.2 834.459 296.656 833.659 297.568C832.859 298.464 832.459 299.744 832.459 301.408V302.128C832.459 303.792 832.859 305.08 833.659 305.992C834.459 306.888 835.643 307.336 837.211 307.336ZM850.563 293.536H853.947L860.283 302.488C860.475 302.76 860.795 303.296 861.243 304.096L861.363 304.024L861.291 302.632V293.536H864.675V310H861.291L854.931 300.976C854.627 300.544 854.315 300.016 853.995 299.392L853.875 299.464C853.923 300.152 853.947 300.632 853.947 300.904V310H850.563V293.536ZM654.939 335.536H667.875V338.488H658.419V342.112H666.819V345.064H658.419V349.048H668.019V352H654.939V335.536ZM673.347 335.536H676.827V348.976H685.707V352H673.347V335.536ZM690.419 335.536H703.355V338.488H693.899V342.112H702.299V345.064H693.899V349.048H703.499V352H690.419V335.536ZM716.195 352.288C710.883 352.288 708.227 349.448 708.227 343.768C708.227 340.92 708.923 338.792 710.315 337.384C711.707 335.96 713.667 335.248 716.195 335.248C717.587 335.248 718.835 335.488 719.939 335.968C721.059 336.432 721.939 337.152 722.579 338.128C723.235 339.088 723.563 340.264 723.563 341.656H719.987C719.987 340.584 719.643 339.744 718.955 339.136C718.267 338.512 717.371 338.2 716.267 338.2C714.763 338.2 713.643 338.648 712.907 339.544C712.171 340.44 711.803 341.728 711.803 343.408V344.128C711.803 347.6 713.291 349.336 716.267 349.336C717.435 349.336 718.363 349.032 719.051 348.424C719.755 347.816 720.107 346.976 720.107 345.904H723.563C723.563 347.312 723.243 348.496 722.603 349.456C721.963 350.4 721.091 351.112 719.987 351.592C718.883 352.056 717.619 352.288 716.195 352.288ZM732.531 338.536H727.443V335.536H741.099V338.536H736.011V352H732.531V338.536ZM745.619 335.536H754.355C756.195 335.536 757.579 335.992 758.507 336.904C759.435 337.8 759.899 339.064 759.899 340.696C759.899 343 758.939 344.536 757.019 345.304L760.379 352H756.611L753.707 345.856H749.099V352H745.619V335.536ZM754.043 342.952C754.795 342.952 755.371 342.752 755.771 342.352C756.171 341.952 756.371 341.4 756.371 340.696C756.371 339.992 756.171 339.448 755.771 339.064C755.371 338.68 754.795 338.488 754.043 338.488H749.099V342.952H754.043ZM765.339 335.536H768.819V352H765.339V335.536ZM781.787 352.288C776.475 352.288 773.819 349.448 773.819 343.768C773.819 340.92 774.515 338.792 775.907 337.384C777.299 335.96 779.259 335.248 781.787 335.248C783.179 335.248 784.427 335.488 785.531 335.968C786.651 336.432 787.531 337.152 788.171 338.128C788.827 339.088 789.155 340.264 789.155 341.656H785.579C785.579 340.584 785.235 339.744 784.547 339.136C783.859 338.512 782.963 338.2 781.859 338.2C780.355 338.2 779.235 338.648 778.499 339.544C777.763 340.44 777.395 341.728 777.395 343.408V344.128C777.395 347.6 778.883 349.336 781.859 349.336C783.027 349.336 783.955 349.032 784.643 348.424C785.347 347.816 785.699 346.976 785.699 345.904H789.155C789.155 347.312 788.835 348.496 788.195 349.456C787.555 350.4 786.683 351.112 785.579 351.592C784.475 352.056 783.211 352.288 781.787 352.288ZM794.139 335.536H797.619V352H794.139V335.536ZM807.203 338.536H802.115V335.536H815.771V338.536H810.683V352H807.203V338.536ZM824.971 345.352L818.683 335.536H822.643L826.747 342.256H826.867L830.923 335.536H834.691L828.451 345.352V352H824.971V345.352ZM655.148 361.536H662.996C664.836 361.536 666.22 362.008 667.148 362.952C668.076 363.88 668.54 365.2 668.54 366.912C668.54 368.624 668.052 369.96 667.076 370.92C666.116 371.864 664.676 372.336 662.756 372.336H658.628V378H655.148V361.536ZM662.684 369.384C663.436 369.384 664.012 369.168 664.412 368.736C664.812 368.304 665.012 367.696 665.012 366.912C665.012 366.144 664.812 365.552 664.412 365.136C664.012 364.704 663.436 364.488 662.684 364.488H658.628V369.384H662.684ZM673.556 361.536H682.292C684.132 361.536 685.516 361.992 686.444 362.904C687.372 363.8 687.836 365.064 687.836 366.696C687.836 369 686.876 370.536 684.956 371.304L688.316 378H684.548L681.644 371.856H677.036V378H673.556V361.536ZM681.98 368.952C682.732 368.952 683.308 368.752 683.708 368.352C684.108 367.952 684.308 367.4 684.308 366.696C684.308 365.992 684.108 365.448 683.708 365.064C683.308 364.68 682.732 364.488 681.98 364.488H677.036V368.952H681.98ZM701.004 378.288C698.364 378.288 696.316 377.584 694.86 376.176C693.404 374.752 692.676 372.616 692.676 369.768C692.676 366.92 693.404 364.792 694.86 363.384C696.316 361.96 698.364 361.248 701.004 361.248C703.66 361.248 705.716 361.96 707.172 363.384C708.628 364.792 709.356 366.92 709.356 369.768C709.356 372.616 708.628 374.752 707.172 376.176C705.716 377.584 703.66 378.288 701.004 378.288ZM701.004 375.336C702.572 375.336 703.756 374.888 704.556 373.992C705.372 373.08 705.78 371.792 705.78 370.128V369.408C705.78 367.744 705.372 366.464 704.556 365.568C703.756 364.656 702.572 364.2 701.004 364.2C699.436 364.2 698.252 364.656 697.452 365.568C696.652 366.464 696.252 367.744 696.252 369.408V370.128C696.252 371.792 696.652 373.08 697.452 373.992C698.252 374.888 699.436 375.336 701.004 375.336ZM714.356 361.536H721.172C723.684 361.536 725.62 362.224 726.98 363.6C728.356 364.96 729.044 367.016 729.044 369.768C729.044 372.52 728.356 374.584 726.98 375.96C725.62 377.32 723.684 378 721.172 378H714.356V361.536ZM721.172 375.048C722.58 375.048 723.644 374.624 724.364 373.776C725.1 372.912 725.468 371.696 725.468 370.128V369.408C725.468 367.84 725.1 366.632 724.364 365.784C723.644 364.92 722.58 364.488 721.172 364.488H717.836V375.048H721.172ZM741.108 378.288C738.884 378.288 737.156 377.744 735.924 376.656C734.692 375.568 734.076 373.976 734.076 371.88V361.536H737.556V371.712C737.556 372.896 737.86 373.8 738.468 374.424C739.092 375.032 739.972 375.336 741.108 375.336C742.244 375.336 743.124 375.032 743.748 374.424C744.388 373.8 744.708 372.896 744.708 371.712V361.536H748.188V371.88C748.188 373.976 747.564 375.568 746.316 376.656C745.084 377.744 743.348 378.288 741.108 378.288ZM761.164 378.288C755.852 378.288 753.196 375.448 753.196 369.768C753.196 366.92 753.892 364.792 755.284 363.384C756.676 361.96 758.636 361.248 761.164 361.248C762.556 361.248 763.804 361.488 764.908 361.968C766.028 362.432 766.908 363.152 767.548 364.128C768.204 365.088 768.532 366.264 768.532 367.656H764.956C764.956 366.584 764.612 365.744 763.924 365.136C763.236 364.512 762.34 364.2 761.236 364.2C759.732 364.2 758.612 364.648 757.876 365.544C757.14 366.44 756.772 367.728 756.772 369.408V370.128C756.772 373.6 758.26 375.336 761.236 375.336C762.404 375.336 763.332 375.032 764.02 374.424C764.724 373.816 765.076 372.976 765.076 371.904H768.532C768.532 373.312 768.212 374.496 767.572 375.456C766.932 376.4 766.06 377.112 764.956 377.592C763.852 378.056 762.588 378.288 761.164 378.288ZM777.501 364.536H772.413V361.536H786.069V364.536H780.981V378H777.501V364.536ZM790.588 361.536H794.068V378H790.588V361.536ZM807.396 378.288C804.756 378.288 802.708 377.584 801.252 376.176C799.796 374.752 799.068 372.616 799.068 369.768C799.068 366.92 799.796 364.792 801.252 363.384C802.708 361.96 804.756 361.248 807.396 361.248C810.052 361.248 812.108 361.96 813.564 363.384C815.02 364.792 815.748 366.92 815.748 369.768C815.748 372.616 815.02 374.752 813.564 376.176C812.108 377.584 810.052 378.288 807.396 378.288ZM807.396 375.336C808.964 375.336 810.148 374.888 810.948 373.992C811.764 373.08 812.172 371.792 812.172 370.128V369.408C812.172 367.744 811.764 366.464 810.948 365.568C810.148 364.656 808.964 364.2 807.396 364.2C805.828 364.2 804.644 364.656 803.844 365.568C803.044 366.464 802.644 367.744 802.644 369.408V370.128C802.644 371.792 803.044 373.08 803.844 373.992C804.644 374.888 805.828 375.336 807.396 375.336ZM820.748 361.536H824.132L830.468 370.488C830.66 370.76 830.98 371.296 831.428 372.096L831.548 372.024L831.476 370.632V361.536H834.86V378H831.476L825.116 368.976C824.812 368.544 824.5 368.016 824.18 367.392L824.06 367.464C824.108 368.152 824.132 368.632 824.132 368.904V378H820.748V361.536Z" fill="black"/>
</svg>
