<svg width="337" height="202" viewBox="0 0 337 202" fill="none" xmlns="http://www.w3.org/2000/svg">
<rect width="335" height="202" transform="translate(1)" fill="#F0F0F0"/>
<path d="M335.725 101C335.725 156.504 290.64 201.5 235.022 201.5C179.405 201.5 134.319 156.504 134.319 101C134.319 45.4963 179.405 0.5 235.022 0.5C290.64 0.5 335.725 45.4963 335.725 101Z" stroke="#3A0B5C"/>
<path d="M202.723 91.3321C202.947 93.6845 203.09 96.0603 203.149 98.4569C202.874 98.4631 202.655 98.6911 202.661 98.9668C202.674 99.6429 202.681 100.321 202.681 101C202.681 101.679 202.674 102.357 202.661 103.033C202.655 103.309 202.874 103.537 203.149 103.543C203.09 105.94 202.947 108.316 202.723 110.668C202.449 110.641 202.204 110.841 202.177 111.116C202.042 112.466 201.88 113.808 201.692 115.142C201.653 115.415 201.843 115.668 202.116 115.707C201.769 118.077 201.34 120.421 200.832 122.734C200.563 122.675 200.296 122.844 200.235 123.113C199.938 124.434 199.615 125.745 199.266 127.045C199.195 127.312 199.353 127.585 199.618 127.657C198.988 129.964 198.277 132.238 197.489 134.476C197.23 134.384 196.944 134.519 196.852 134.779C196.396 136.053 195.915 137.316 195.41 138.566C195.307 138.822 195.43 139.113 195.685 139.217C194.779 141.427 193.797 143.597 192.742 145.725C192.496 145.602 192.196 145.702 192.072 145.949C191.466 147.157 190.835 148.352 190.182 149.532C190.048 149.773 190.135 150.077 190.376 150.211C189.21 152.292 187.973 154.328 186.667 156.316C186.437 156.164 186.127 156.227 185.975 156.456C185.227 157.582 184.457 158.693 183.665 159.786C183.503 160.009 183.553 160.321 183.776 160.484C182.369 162.407 180.895 164.28 179.359 166.097C179.149 165.919 178.834 165.944 178.655 166.154C177.777 167.181 176.88 168.191 175.962 169.182C175.775 169.384 175.787 169.7 175.988 169.887C174.362 171.627 172.674 173.309 170.93 174.931C170.742 174.729 170.427 174.716 170.224 174.903C169.23 175.817 168.218 176.712 167.188 177.586C166.978 177.765 166.952 178.079 167.129 178.29C165.308 179.821 163.431 181.289 161.503 182.691C161.341 182.467 161.03 182.417 160.806 182.578C159.71 183.366 158.598 184.133 157.47 184.878C157.239 185.03 157.176 185.34 157.327 185.57C155.336 186.87 153.297 188.102 151.212 189.263C151.079 189.022 150.775 188.934 150.534 189.067C149.352 189.718 148.156 190.345 146.946 190.949C146.699 191.072 146.598 191.371 146.721 191.618C144.59 192.668 142.418 193.645 140.206 194.546C140.102 194.291 139.812 194.167 139.556 194.27C138.305 194.772 137.041 195.25 135.765 195.704C135.506 195.796 135.37 196.081 135.461 196.341C133.222 197.124 130.947 197.831 128.639 198.458C128.567 198.192 128.294 198.034 128.027 198.105C126.726 198.452 125.415 198.773 124.093 199.069C123.824 199.129 123.655 199.396 123.714 199.665C121.4 200.17 119.056 200.597 116.685 200.941C116.646 200.668 116.394 200.478 116.121 200.517C114.787 200.704 113.445 200.865 112.094 200.999C111.82 201.027 111.619 201.271 111.646 201.545C109.294 201.768 106.918 201.91 104.521 201.969C104.515 201.693 104.287 201.474 104.011 201.48C103.335 201.493 102.657 201.5 101.978 201.5C101.299 201.5 100.621 201.493 99.9446 201.48C99.6689 201.474 99.441 201.693 99.4349 201.969C97.0382 201.91 94.6623 201.768 92.3097 201.545C92.3364 201.271 92.136 201.027 91.8616 200.999C90.5113 200.865 89.1689 200.704 87.8349 200.517C87.5618 200.478 87.3094 200.668 87.2704 200.941C84.8999 200.597 82.5559 200.17 80.2416 199.665C80.3011 199.396 80.1316 199.129 79.8625 199.069C78.5412 198.773 77.2296 198.452 75.9285 198.105C75.6621 198.034 75.3885 198.192 75.3169 198.458C73.0089 197.831 70.7338 197.124 68.4946 196.341C68.5863 196.081 68.4503 195.796 68.1905 195.704C66.915 195.25 65.6513 194.772 64.4 194.27C64.1441 194.167 63.8535 194.291 63.7501 194.546C61.5382 193.645 59.3654 192.668 57.235 191.618C57.3574 191.371 57.257 191.072 57.0102 190.949C55.8002 190.345 54.604 189.718 53.4223 189.067C53.1807 188.934 52.8772 189.022 52.7438 189.263C50.6589 188.102 48.6195 186.87 46.6287 185.57C46.78 185.34 46.7164 185.03 46.4863 184.878C45.3581 184.133 44.2458 183.366 43.1501 182.578C42.9263 182.417 42.6144 182.468 42.4529 182.691C40.5248 181.289 38.6481 179.821 36.8264 178.29C37.0042 178.079 36.9782 177.765 36.768 177.586C35.7379 176.712 34.7257 175.817 33.732 174.903C33.5291 174.716 33.2134 174.729 33.0263 174.931C31.2815 173.309 29.5941 171.627 27.9675 169.887C28.1693 169.7 28.1812 169.384 27.9938 169.182C27.0764 168.191 26.1786 167.181 25.3012 166.154C25.1222 165.944 24.8072 165.919 24.5973 166.097C23.0606 164.28 21.587 162.407 20.18 160.484C20.4028 160.321 20.4525 160.009 20.2908 159.786C19.4992 158.693 18.7292 157.582 17.9812 156.456C17.8287 156.227 17.5191 156.164 17.2891 156.316C15.9832 154.328 14.7456 152.292 13.5797 150.211C13.8204 150.077 13.9074 149.773 13.7738 149.532C13.1205 148.352 12.4902 147.157 11.8837 145.949C11.76 145.702 11.4602 145.602 11.2136 145.725C10.1587 143.597 9.1767 141.427 8.27091 139.217C8.52616 139.113 8.64931 138.822 8.54601 138.566C8.0408 137.316 7.56006 136.053 7.10438 134.779C7.01156 134.519 6.72613 134.384 6.46642 134.476C5.67896 132.238 4.96823 129.964 4.33738 127.657C4.60338 127.585 4.76104 127.312 4.68964 127.045C4.34091 125.745 4.01768 124.434 3.7205 123.113C3.65998 122.844 3.39316 122.675 3.12416 122.734C2.61572 120.421 2.18677 118.077 1.8403 115.707C2.11307 115.668 2.30283 115.415 2.2643 115.142C2.07608 113.808 1.9141 112.466 1.77889 111.116C1.75142 110.841 1.50706 110.641 1.23279 110.668C1.00894 108.316 0.865947 105.94 0.8066 103.543C1.08211 103.537 1.30082 103.309 1.29534 103.033C1.2819 102.357 1.27515 101.679 1.27515 101C1.27515 100.321 1.2819 99.6429 1.29534 98.9667C1.30083 98.691 1.08212 98.463 0.806601 98.4569C0.865949 96.0603 1.00895 93.6844 1.23279 91.332C1.50706 91.3588 1.75142 91.1586 1.7789 90.8842C1.91411 89.5341 2.07609 88.1918 2.26431 86.858C2.30283 86.5849 2.11308 86.3323 1.8403 86.2932C2.18677 83.923 2.61573 81.5794 3.12417 79.2656C3.39317 79.3255 3.65999 79.1563 3.72051 78.8873C4.01769 77.5664 4.34092 76.2553 4.68965 74.9547C4.76105 74.6883 4.60339 74.4146 4.33739 74.3426C4.96824 72.0358 5.67897 69.7619 6.46643 67.5241C6.72614 67.6162 7.01157 67.4808 7.10439 67.2212C7.56007 65.9466 8.04081 64.6839 8.54602 63.4336C8.64932 63.178 8.52617 62.887 8.27092 62.7832C9.17671 60.5734 10.1587 58.4028 11.2136 56.2746C11.4602 56.3976 11.76 56.2979 11.8837 56.0514C12.4902 54.8429 13.1205 53.6483 13.7738 52.4682C13.9074 52.2269 13.8204 51.9232 13.5797 51.7891C14.7456 49.7076 15.9832 47.6715 17.2892 45.6841C17.5191 45.8361 17.8287 45.7733 17.9813 45.5436C18.7292 44.4176 19.4993 43.3075 20.2908 42.2139C20.4525 41.9905 20.4028 41.6785 20.18 41.5164C21.587 39.5926 23.0606 37.7202 24.5973 35.9027C24.8073 36.0812 25.1222 36.0561 25.3012 35.8464C26.1786 34.819 27.0764 33.8095 27.9939 32.8184C28.1812 32.6161 28.1693 32.3004 27.9675 32.1127C29.5941 30.3729 31.2815 28.6906 33.0263 27.069C33.2134 27.2713 33.5291 27.2842 33.732 27.0975C34.7257 26.183 35.7379 25.2883 36.768 24.4139C36.9782 24.2355 37.0042 23.9206 36.8264 23.7101C38.6481 22.179 40.5248 20.7109 42.4529 19.3092C42.6144 19.5325 42.9262 19.5831 43.1501 19.422C44.2458 18.6336 45.3581 17.8667 46.4863 17.1218C46.7164 16.9699 46.78 16.6604 46.6287 16.4301C48.6195 15.1298 50.6589 13.8976 52.7437 12.7368C52.8772 12.9779 53.1807 13.0656 53.4223 12.9327C54.604 12.2824 55.8001 11.6551 57.0102 11.0514C57.2569 10.9283 57.3574 10.6288 57.235 10.3819C59.3654 9.33222 61.5382 8.35515 63.7501 7.45394C63.8534 7.70941 64.1441 7.83318 64.4 7.73041C65.6512 7.22783 66.9149 6.74961 68.1905 6.29633C68.4503 6.204 68.5863 5.91883 68.4946 5.65894C70.7338 4.87574 73.0089 4.1689 75.3169 3.54152C75.3885 3.80762 75.6621 3.9657 75.9285 3.8947C77.2297 3.54794 78.5412 3.22654 79.8625 2.93106C80.1316 2.87089 80.3011 2.60428 80.2416 2.33521C82.5559 1.82972 84.8999 1.40326 87.2705 1.05882C87.3094 1.33163 87.5618 1.5216 87.8349 1.4833C89.1689 1.29619 90.5113 1.13517 91.8616 1.00076C92.136 0.973445 92.3364 0.7292 92.3098 0.454912C94.6623 0.232399 97.0382 0.0902566 99.4349 0.0312653C99.441 0.306784 99.669 0.525525 99.9446 0.520076C100.621 0.506713 101.299 0.5 101.978 0.5C102.657 0.5 103.335 0.506713 104.011 0.520077C104.287 0.525525 104.515 0.306784 104.521 0.0312657C106.918 0.0902573 109.294 0.2324 111.646 0.454913C111.62 0.729201 111.82 0.973447 112.094 1.00076C113.445 1.13517 114.787 1.2962 116.121 1.48331C116.394 1.52161 116.647 1.33164 116.685 1.05882C119.056 1.40326 121.4 1.82972 123.714 2.33521C123.655 2.60428 123.824 2.87089 124.093 2.93106C125.415 3.22655 126.726 3.54795 128.027 3.8947C128.294 3.9657 128.567 3.80762 128.639 3.54152C130.947 4.16889 133.222 4.87574 135.461 5.65894C135.37 5.91883 135.506 6.204 135.765 6.29633C137.041 6.74961 138.305 7.22783 139.556 7.73041C139.812 7.83317 140.102 7.7094 140.206 7.45394C142.418 8.35515 144.59 9.33222 146.721 10.3819C146.598 10.6288 146.699 10.9283 146.946 11.0514C148.156 11.6551 149.352 12.2824 150.534 12.9327C150.775 13.0656 151.079 12.9779 151.212 12.7368C153.297 13.8976 155.336 15.1298 157.327 16.4301C157.176 16.6604 157.239 16.9699 157.47 17.1218C158.598 17.8667 159.71 18.6336 160.806 19.422C161.03 19.5831 161.341 19.5325 161.503 19.3092C163.431 20.7109 165.308 22.179 167.129 23.7101C166.952 23.9206 166.978 24.2355 167.188 24.4139C168.218 25.2883 169.23 26.183 170.224 27.0975C170.427 27.2842 170.742 27.2713 170.93 27.069C172.674 28.6906 174.362 30.3729 175.988 32.1127C175.787 32.3004 175.775 32.6161 175.962 32.8184C176.88 33.8095 177.777 34.819 178.655 35.8464C178.834 36.0561 179.149 36.0812 179.359 35.9028C180.895 37.7202 182.369 39.5926 183.776 41.5164C183.553 41.6786 183.503 41.9905 183.665 42.2139C184.457 43.3075 185.227 44.4176 185.975 45.5436C186.127 45.7733 186.437 45.8361 186.667 45.6842C187.973 47.6715 189.21 49.7076 190.376 51.7892C190.135 51.9232 190.049 52.227 190.182 52.4682C190.835 53.6483 191.466 54.8429 192.072 56.0515C192.196 56.2979 192.496 56.3976 192.742 56.2746C193.797 58.4028 194.779 60.5734 195.685 62.7832C195.43 62.8871 195.307 63.178 195.41 63.4336C195.915 64.6839 196.396 65.9466 196.852 67.2212C196.944 67.4809 197.23 67.6163 197.489 67.5241C198.277 69.762 198.988 72.0358 199.618 74.3426C199.353 74.4146 199.195 74.6884 199.266 74.9547C199.615 76.2554 199.938 77.5664 200.235 78.8873C200.296 79.1563 200.563 79.3255 200.832 79.2657C201.34 81.5795 201.769 83.923 202.116 86.2932C201.843 86.3324 201.653 86.585 201.692 86.858C201.88 88.1918 202.042 89.5341 202.177 90.8843C202.204 91.1586 202.449 91.3589 202.723 91.3321Z" stroke="#3A0B5C" stroke-miterlimit="4.81765" stroke-linecap="round" stroke-dasharray="4 8"/>
<path d="M36.7266 90.14H40.3666C41.1333 90.14 41.71 90.33 42.0966 90.71C42.4833 91.0833 42.6766 91.61 42.6766 92.29C42.6766 93.25 42.2766 93.89 41.4766 94.21L42.8766 97H41.3066L40.0966 94.44H38.1766V97H36.7266V90.14ZM40.2366 93.23C40.55 93.23 40.79 93.1467 40.9566 92.98C41.1233 92.8133 41.2066 92.5833 41.2066 92.29C41.2066 91.9967 41.1233 91.77 40.9566 91.61C40.79 91.45 40.55 91.37 40.2366 91.37H38.1766V93.23H40.2366ZM44.9434 90.14H50.3334V91.37H46.3934V92.88H49.8934V94.11H46.3934V95.77H50.3934V97H44.9434V90.14ZM52.6134 90.14H54.0234L56.6634 93.87C56.7434 93.9833 56.8767 94.2067 57.0634 94.54L57.1134 94.51L57.0834 93.93V90.14H58.4934V97H57.0834L54.4334 93.24C54.3067 93.06 54.1767 92.84 54.0434 92.58L53.9934 92.61C54.0134 92.8967 54.0234 93.0967 54.0234 93.21V97H52.6134V90.14ZM60.8302 90.14H66.2202V91.37H62.2802V92.88H65.7802V94.11H62.2802V95.77H66.2802V97H60.8302V90.14ZM67.8501 90.14H69.4001L70.3901 94.36C70.4367 94.5467 70.4901 94.8667 70.5501 95.32H70.6001C70.6601 94.8667 70.7134 94.5467 70.7601 94.36L71.7701 90.14H73.5201L74.5201 94.36C74.5601 94.5333 74.6134 94.8533 74.6801 95.32H74.7301C74.7834 94.8933 74.8367 94.5733 74.8901 94.36L75.9101 90.14H77.2501L75.4301 97H73.8601L72.7301 92.63C72.6701 92.41 72.6134 92.0867 72.5601 91.66H72.5201C72.4534 92.12 72.3967 92.4433 72.3501 92.63L71.2401 97H69.6701L67.8501 90.14ZM80.4266 90.14H82.2466L84.9266 97H83.3466L82.8566 95.69H79.7366L79.2466 97H77.7466L80.4266 90.14ZM82.3966 94.48L81.7466 92.74C81.6666 92.5267 81.5232 92.0767 81.3166 91.39H81.2666C81.0599 92.0767 80.9166 92.5267 80.8366 92.74L80.1866 94.48H82.3966ZM86.6134 90.14H90.5434C90.9034 90.14 91.23 90.2133 91.5234 90.36C91.8167 90.5 92.0467 90.7 92.2134 90.96C92.38 91.2133 92.4634 91.5067 92.4634 91.84C92.4634 92.22 92.3567 92.55 92.1434 92.83C91.9367 93.1033 91.67 93.2933 91.3434 93.4V93.44C91.73 93.5133 92.0434 93.7033 92.2834 94.01C92.53 94.31 92.6534 94.6667 92.6534 95.08C92.6534 95.7 92.4534 96.1767 92.0534 96.51C91.66 96.8367 91.1567 97 90.5434 97H86.6134V90.14ZM90.1334 92.88C90.4 92.88 90.6067 92.8133 90.7534 92.68C90.9 92.54 90.9734 92.3633 90.9734 92.15C90.9734 91.8967 90.9034 91.7033 90.7634 91.57C90.63 91.4367 90.4434 91.37 90.2034 91.37H88.0734V92.88H90.1334ZM90.3034 95.77C90.5567 95.77 90.7634 95.6967 90.9234 95.55C91.0834 95.4033 91.1634 95.1933 91.1634 94.92C91.1634 94.6733 91.0834 94.4733 90.9234 94.32C90.7634 94.1667 90.53 94.09 90.2234 94.09H88.0734V95.77H90.3034ZM94.8302 90.14H96.2802V95.74H99.9802V97H94.8302V90.14ZM101.943 90.14H107.333V91.37H103.393V92.88H106.893V94.11H103.393V95.77H107.393V97H101.943V90.14ZM49.5567 101.14H54.9467V102.37H51.0067V103.88H54.5067V105.11H51.0067V106.77H55.0067V108H49.5567V101.14ZM57.2266 101.14H58.6366L61.2766 104.87C61.3566 104.983 61.49 105.207 61.6766 105.54L61.7266 105.51L61.6966 104.93V101.14H63.1066V108H61.6966L59.0466 104.24C58.92 104.06 58.79 103.84 58.6566 103.58L58.6066 103.61C58.6266 103.897 58.6366 104.097 58.6366 104.21V108H57.2266V101.14ZM65.4434 101.14H70.8334V102.37H66.8934V103.88H70.3934V105.11H66.8934V106.77H70.8934V108H65.4434V101.14ZM73.1134 101.14H76.7534C77.52 101.14 78.0967 101.33 78.4834 101.71C78.87 102.083 79.0634 102.61 79.0634 103.29C79.0634 104.25 78.6634 104.89 77.8634 105.21L79.2634 108H77.6934L76.4834 105.44H74.5634V108H73.1134V101.14ZM76.6234 104.23C76.9367 104.23 77.1767 104.147 77.3434 103.98C77.51 103.813 77.5934 103.583 77.5934 103.29C77.5934 102.997 77.51 102.77 77.3434 102.61C77.1767 102.45 76.9367 102.37 76.6234 102.37H74.5634V104.23H76.6234ZM84.4002 108.12C83.3402 108.12 82.5202 107.83 81.9402 107.25C81.3668 106.67 81.0802 105.777 81.0802 104.57C81.0802 103.39 81.3868 102.503 82.0002 101.91C82.6135 101.317 83.4802 101.02 84.6002 101.02C85.1935 101.02 85.7335 101.113 86.2202 101.3C86.7135 101.48 87.1035 101.757 87.3902 102.13C87.6835 102.497 87.8302 102.947 87.8302 103.48H86.3302C86.3302 103.107 86.1635 102.81 85.8302 102.59C85.5035 102.363 85.1102 102.25 84.6502 102.25C83.9502 102.25 83.4268 102.437 83.0802 102.81C82.7402 103.183 82.5702 103.72 82.5702 104.42V104.72C82.5702 105.453 82.7268 106 83.0402 106.36C83.3602 106.713 83.8468 106.89 84.5002 106.89C85.0402 106.89 85.4868 106.763 85.8402 106.51C86.1935 106.25 86.3735 105.9 86.3802 105.46H84.3002V104.27H87.8302V108H86.8302L86.7002 107.24C86.3802 107.547 86.0435 107.77 85.6902 107.91C85.3368 108.05 84.9068 108.12 84.4002 108.12ZM92.0634 105.23L89.4434 101.14H91.0934L92.8034 103.94H92.8534L94.5434 101.14H96.1134L93.5134 105.23V108H92.0634V105.23Z" fill="#3A0B5C"/>
<path d="M225.21 64.12C224.15 64.12 223.33 63.83 222.75 63.25C222.176 62.67 221.89 61.7767 221.89 60.57C221.89 59.39 222.196 58.5033 222.81 57.91C223.423 57.3167 224.29 57.02 225.41 57.02C226.003 57.02 226.543 57.1133 227.03 57.3C227.523 57.48 227.913 57.7567 228.2 58.13C228.493 58.4967 228.64 58.9467 228.64 59.48H227.14C227.14 59.1067 226.973 58.81 226.64 58.59C226.313 58.3633 225.92 58.25 225.46 58.25C224.76 58.25 224.236 58.4367 223.89 58.81C223.55 59.1833 223.38 59.72 223.38 60.42V60.72C223.38 61.4533 223.536 62 223.85 62.36C224.17 62.7133 224.656 62.89 225.31 62.89C225.85 62.89 226.296 62.7633 226.65 62.51C227.003 62.25 227.183 61.9 227.19 61.46H225.11V60.27H228.64V64H227.64L227.51 63.24C227.19 63.5467 226.853 63.77 226.5 63.91C226.146 64.05 225.716 64.12 225.21 64.12ZM230.923 57.14H234.563C235.33 57.14 235.906 57.33 236.293 57.71C236.68 58.0833 236.873 58.61 236.873 59.29C236.873 60.25 236.473 60.89 235.673 61.21L237.073 64H235.503L234.293 61.44H232.373V64H230.923V57.14ZM234.433 60.23C234.746 60.23 234.986 60.1467 235.153 59.98C235.32 59.8133 235.403 59.5833 235.403 59.29C235.403 58.9967 235.32 58.77 235.153 58.61C234.986 58.45 234.746 58.37 234.433 58.37H232.373V60.23H234.433ZM239.14 57.14H240.59V64H239.14V57.14ZM242.923 57.14H245.763C246.81 57.14 247.616 57.4267 248.183 58C248.756 58.5667 249.043 59.4233 249.043 60.57C249.043 61.7167 248.756 62.5767 248.183 63.15C247.616 63.7167 246.81 64 245.763 64H242.923V57.14ZM245.763 62.77C246.35 62.77 246.793 62.5933 247.093 62.24C247.4 61.88 247.553 61.3733 247.553 60.72V60.42C247.553 59.7667 247.4 59.2633 247.093 58.91C246.793 58.55 246.35 58.37 245.763 58.37H244.373V62.77H245.763ZM257.553 64.12C257.026 64.12 256.543 64.04 256.103 63.88C255.67 63.7133 255.323 63.47 255.063 63.15C254.803 62.83 254.673 62.4433 254.673 61.99L254.683 61.77H256.153L256.143 61.93C256.143 62.2233 256.273 62.4567 256.533 62.63C256.793 62.8033 257.156 62.89 257.623 62.89C258.116 62.89 258.473 62.8267 258.693 62.7C258.913 62.5667 259.023 62.39 259.023 62.17C259.023 61.9767 258.95 61.8167 258.803 61.69C258.663 61.5567 258.483 61.4533 258.263 61.38C258.05 61.3 257.753 61.2067 257.373 61.1C256.833 60.9467 256.396 60.8 256.063 60.66C255.73 60.52 255.443 60.3133 255.203 60.04C254.963 59.76 254.843 59.3933 254.843 58.94C254.843 58.3133 255.096 57.8367 255.603 57.51C256.11 57.1833 256.783 57.02 257.623 57.02C258.416 57.02 259.063 57.19 259.563 57.53C260.07 57.8633 260.323 58.3667 260.323 59.04V59.16H258.883V59.07C258.883 58.8167 258.766 58.6167 258.533 58.47C258.306 58.3233 257.996 58.25 257.603 58.25C257.183 58.25 256.86 58.3067 256.633 58.42C256.413 58.5333 256.303 58.69 256.303 58.89C256.303 59.0433 256.37 59.1767 256.503 59.29C256.636 59.3967 256.803 59.4867 257.003 59.56C257.203 59.6267 257.486 59.71 257.853 59.81C258.4 59.9567 258.846 60.1033 259.193 60.25C259.546 60.39 259.85 60.6 260.103 60.88C260.356 61.16 260.483 61.5267 260.483 61.98C260.483 62.7133 260.22 63.2533 259.693 63.6C259.173 63.9467 258.46 64.12 257.553 64.12ZM264.253 58.39H262.133V57.14H267.823V58.39H265.703V64H264.253V58.39ZM272.75 64.12C271.65 64.12 270.797 63.8267 270.19 63.24C269.584 62.6467 269.28 61.7567 269.28 60.57C269.28 59.3833 269.584 58.4967 270.19 57.91C270.797 57.3167 271.65 57.02 272.75 57.02C273.857 57.02 274.714 57.3167 275.32 57.91C275.927 58.4967 276.23 59.3833 276.23 60.57C276.23 61.7567 275.927 62.6467 275.32 63.24C274.714 63.8267 273.857 64.12 272.75 64.12ZM272.75 62.89C273.404 62.89 273.897 62.7033 274.23 62.33C274.57 61.95 274.74 61.4133 274.74 60.72V60.42C274.74 59.7267 274.57 59.1933 274.23 58.82C273.897 58.44 273.404 58.25 272.75 58.25C272.097 58.25 271.604 58.44 271.27 58.82C270.937 59.1933 270.77 59.7267 270.77 60.42V60.72C270.77 61.4133 270.937 61.95 271.27 62.33C271.604 62.7033 272.097 62.89 272.75 62.89ZM278.314 57.14H281.954C282.72 57.14 283.297 57.33 283.684 57.71C284.07 58.0833 284.264 58.61 284.264 59.29C284.264 60.25 283.864 60.89 283.064 61.21L284.464 64H282.894L281.684 61.44H279.764V64H278.314V57.14ZM281.824 60.23C282.137 60.23 282.377 60.1467 282.544 59.98C282.71 59.8133 282.794 59.5833 282.794 59.29C282.794 58.9967 282.71 58.77 282.544 58.61C282.377 58.45 282.137 58.37 281.824 58.37H279.764V60.23H281.824ZM288.56 57.14H290.38L293.06 64H291.48L290.99 62.69H287.87L287.38 64H285.88L288.56 57.14ZM290.53 61.48L289.88 59.74C289.8 59.5267 289.657 59.0767 289.45 58.39H289.4C289.194 59.0767 289.05 59.5267 288.97 59.74L288.32 61.48H290.53ZM297.817 64.12C296.757 64.12 295.937 63.83 295.357 63.25C294.784 62.67 294.497 61.7767 294.497 60.57C294.497 59.39 294.804 58.5033 295.417 57.91C296.03 57.3167 296.897 57.02 298.017 57.02C298.61 57.02 299.15 57.1133 299.637 57.3C300.13 57.48 300.52 57.7567 300.807 58.13C301.1 58.4967 301.247 58.9467 301.247 59.48H299.747C299.747 59.1067 299.58 58.81 299.247 58.59C298.92 58.3633 298.527 58.25 298.067 58.25C297.367 58.25 296.844 58.4367 296.497 58.81C296.157 59.1833 295.987 59.72 295.987 60.42V60.72C295.987 61.4533 296.144 62 296.457 62.36C296.777 62.7133 297.264 62.89 297.917 62.89C298.457 62.89 298.904 62.7633 299.257 62.51C299.61 62.25 299.79 61.9 299.797 61.46H297.717V60.27H301.247V64H300.247L300.117 63.24C299.797 63.5467 299.46 63.77 299.107 63.91C298.754 64.05 298.324 64.12 297.817 64.12ZM303.53 57.14H308.92V58.37H304.98V59.88H308.48V61.11H304.98V62.77H308.98V64H303.53V57.14ZM227.887 84.14H233.277V85.37H229.337V86.88H232.837V88.11H229.337V89.77H233.337V91H227.887V84.14ZM235.557 84.14H237.007V89.74H240.707V91H235.557V84.14ZM242.67 84.14H248.06V85.37H244.12V86.88H247.62V88.11H244.12V89.77H248.12V91H242.67V84.14ZM253.41 91.12C251.197 91.12 250.09 89.9367 250.09 87.57C250.09 86.3833 250.38 85.4967 250.96 84.91C251.54 84.3167 252.357 84.02 253.41 84.02C253.99 84.02 254.51 84.12 254.97 84.32C255.437 84.5133 255.803 84.8133 256.07 85.22C256.343 85.62 256.48 86.11 256.48 86.69H254.99C254.99 86.2433 254.847 85.8933 254.56 85.64C254.273 85.38 253.9 85.25 253.44 85.25C252.813 85.25 252.347 85.4367 252.04 85.81C251.733 86.1833 251.58 86.72 251.58 87.42V87.72C251.58 89.1667 252.2 89.89 253.44 89.89C253.927 89.89 254.313 89.7633 254.6 89.51C254.893 89.2567 255.04 88.9067 255.04 88.46H256.48C256.48 89.0467 256.347 89.54 256.08 89.94C255.813 90.3333 255.45 90.63 254.99 90.83C254.53 91.0233 254.003 91.12 253.41 91.12ZM260.217 85.39H258.097V84.14H263.787V85.39H261.667V91H260.217V85.39ZM265.67 84.14H269.31C270.077 84.14 270.653 84.33 271.04 84.71C271.427 85.0833 271.62 85.61 271.62 86.29C271.62 87.25 271.22 87.89 270.42 88.21L271.82 91H270.25L269.04 88.44H267.12V91H265.67V84.14ZM269.18 87.23C269.493 87.23 269.733 87.1467 269.9 86.98C270.067 86.8133 270.15 86.5833 270.15 86.29C270.15 85.9967 270.067 85.77 269.9 85.61C269.733 85.45 269.493 85.37 269.18 85.37H267.12V87.23H269.18ZM273.887 84.14H275.337V91H273.887V84.14ZM277.67 84.14H282.64V85.37H279.12V87.06H282.27V88.29H279.12V91H277.67V84.14ZM284.783 84.14H286.233V91H284.783V84.14ZM288.566 84.14H293.956V85.37H290.016V86.88H293.516V88.11H290.016V89.77H294.016V91H288.566V84.14ZM296.236 84.14H299.076C300.123 84.14 300.93 84.4267 301.496 85C302.07 85.5667 302.356 86.4233 302.356 87.57C302.356 88.7167 302.07 89.5767 301.496 90.15C300.93 90.7167 300.123 91 299.076 91H296.236V84.14ZM299.076 89.77C299.663 89.77 300.106 89.5933 300.406 89.24C300.713 88.88 300.866 88.3733 300.866 87.72V87.42C300.866 86.7667 300.713 86.2633 300.406 85.91C300.106 85.55 299.663 85.37 299.076 85.37H297.686V89.77H299.076ZM213.516 96.39H211.396V95.14H217.086V96.39H214.966V102H213.516V96.39ZM218.969 95.14H222.609C223.375 95.14 223.952 95.33 224.339 95.71C224.725 96.0833 224.919 96.61 224.919 97.29C224.919 98.25 224.519 98.89 223.719 99.21L225.119 102H223.549L222.339 99.44H220.419V102H218.969V95.14ZM222.479 98.23C222.792 98.23 223.032 98.1467 223.199 97.98C223.365 97.8133 223.449 97.5833 223.449 97.29C223.449 96.9967 223.365 96.77 223.199 96.61C223.032 96.45 222.792 96.37 222.479 96.37H220.419V98.23H222.479ZM229.216 95.14H231.036L233.716 102H232.136L231.646 100.69H228.526L228.036 102H226.536L229.216 95.14ZM231.186 99.48L230.536 97.74C230.456 97.5267 230.312 97.0767 230.106 96.39H230.056C229.849 97.0767 229.706 97.5267 229.626 97.74L228.976 99.48H231.186ZM235.402 95.14H236.812L239.452 98.87C239.532 98.9833 239.666 99.2067 239.852 99.54L239.902 99.51L239.872 98.93V95.14H241.282V102H239.872L237.222 98.24C237.096 98.06 236.966 97.84 236.832 97.58L236.782 97.61C236.802 97.8967 236.812 98.0967 236.812 98.21V102H235.402V95.14ZM246.249 102.12C245.723 102.12 245.239 102.04 244.799 101.88C244.366 101.713 244.019 101.47 243.759 101.15C243.499 100.83 243.369 100.443 243.369 99.99L243.379 99.77H244.849L244.839 99.93C244.839 100.223 244.969 100.457 245.229 100.63C245.489 100.803 245.853 100.89 246.319 100.89C246.813 100.89 247.169 100.827 247.389 100.7C247.609 100.567 247.719 100.39 247.719 100.17C247.719 99.9767 247.646 99.8167 247.499 99.69C247.359 99.5567 247.179 99.4533 246.959 99.38C246.746 99.3 246.449 99.2067 246.069 99.1C245.529 98.9467 245.093 98.8 244.759 98.66C244.426 98.52 244.139 98.3133 243.899 98.04C243.659 97.76 243.539 97.3933 243.539 96.94C243.539 96.3133 243.793 95.8367 244.299 95.51C244.806 95.1833 245.479 95.02 246.319 95.02C247.113 95.02 247.759 95.19 248.259 95.53C248.766 95.8633 249.019 96.3667 249.019 97.04V97.16H247.579V97.07C247.579 96.8167 247.463 96.6167 247.229 96.47C247.003 96.3233 246.693 96.25 246.299 96.25C245.879 96.25 245.556 96.3067 245.329 96.42C245.109 96.5333 244.999 96.69 244.999 96.89C244.999 97.0433 245.066 97.1767 245.199 97.29C245.333 97.3967 245.499 97.4867 245.699 97.56C245.899 97.6267 246.183 97.71 246.549 97.81C247.096 97.9567 247.543 98.1033 247.889 98.25C248.243 98.39 248.546 98.6 248.799 98.88C249.053 99.16 249.179 99.5267 249.179 99.98C249.179 100.713 248.916 101.253 248.389 101.6C247.869 101.947 247.156 102.12 246.249 102.12ZM251.289 95.14H254.559C255.326 95.14 255.902 95.3367 256.289 95.73C256.676 96.1167 256.869 96.6667 256.869 97.38C256.869 98.0933 256.666 98.65 256.259 99.05C255.859 99.4433 255.259 99.64 254.459 99.64H252.739V102H251.289V95.14ZM254.429 98.41C254.742 98.41 254.982 98.32 255.149 98.14C255.316 97.96 255.399 97.7067 255.399 97.38C255.399 97.06 255.316 96.8133 255.149 96.64C254.982 96.46 254.742 96.37 254.429 96.37H252.739V98.41H254.429ZM262.179 102.12C261.079 102.12 260.226 101.827 259.619 101.24C259.012 100.647 258.709 99.7567 258.709 98.57C258.709 97.3833 259.012 96.4967 259.619 95.91C260.226 95.3167 261.079 95.02 262.179 95.02C263.286 95.02 264.142 95.3167 264.749 95.91C265.356 96.4967 265.659 97.3833 265.659 98.57C265.659 99.7567 265.356 100.647 264.749 101.24C264.142 101.827 263.286 102.12 262.179 102.12ZM262.179 100.89C262.832 100.89 263.326 100.703 263.659 100.33C263.999 99.95 264.169 99.4133 264.169 98.72V98.42C264.169 97.7267 263.999 97.1933 263.659 96.82C263.326 96.44 262.832 96.25 262.179 96.25C261.526 96.25 261.032 96.44 260.699 96.82C260.366 97.1933 260.199 97.7267 260.199 98.42V98.72C260.199 99.4133 260.366 99.95 260.699 100.33C261.032 100.703 261.526 100.89 262.179 100.89ZM267.742 95.14H271.382C272.149 95.14 272.726 95.33 273.112 95.71C273.499 96.0833 273.692 96.61 273.692 97.29C273.692 98.25 273.292 98.89 272.492 99.21L273.892 102H272.322L271.112 99.44H269.192V102H267.742V95.14ZM271.252 98.23C271.566 98.23 271.806 98.1467 271.972 97.98C272.139 97.8133 272.222 97.5833 272.222 97.29C272.222 96.9967 272.139 96.77 271.972 96.61C271.806 96.45 271.566 96.37 271.252 96.37H269.192V98.23H271.252ZM277.619 96.39H275.499V95.14H281.189V96.39H279.069V102H277.619V96.39ZM284.36 95.14H286.18L288.86 102H287.28L286.79 100.69H283.67L283.18 102H281.68L284.36 95.14ZM286.33 99.48L285.68 97.74C285.6 97.5267 285.457 97.0767 285.25 96.39H285.2C284.993 97.0767 284.85 97.5267 284.77 97.74L284.12 99.48H286.33ZM291.465 96.39H289.345V95.14H295.035V96.39H292.915V102H291.465V96.39ZM296.918 95.14H298.368V102H296.918V95.14ZM303.921 102.12C302.821 102.12 301.968 101.827 301.361 101.24C300.755 100.647 300.451 99.7567 300.451 98.57C300.451 97.3833 300.755 96.4967 301.361 95.91C301.968 95.3167 302.821 95.02 303.921 95.02C305.028 95.02 305.885 95.3167 306.491 95.91C307.098 96.4967 307.401 97.3833 307.401 98.57C307.401 99.7567 307.098 100.647 306.491 101.24C305.885 101.827 305.028 102.12 303.921 102.12ZM303.921 100.89C304.575 100.89 305.068 100.703 305.401 100.33C305.741 99.95 305.911 99.4133 305.911 98.72V98.42C305.911 97.7267 305.741 97.1933 305.401 96.82C305.068 96.44 304.575 96.25 303.921 96.25C303.268 96.25 302.775 96.44 302.441 96.82C302.108 97.1933 301.941 97.7267 301.941 98.42V98.72C301.941 99.4133 302.108 99.95 302.441 100.33C302.775 100.703 303.268 100.89 303.921 100.89ZM309.484 95.14H310.894L313.534 98.87C313.614 98.9833 313.748 99.2067 313.934 99.54L313.984 99.51L313.954 98.93V95.14H315.364V102H313.954L311.304 98.24C311.178 98.06 311.048 97.84 310.914 97.58L310.864 97.61C310.884 97.8967 310.894 98.0967 310.894 98.21V102H309.484V95.14ZM227.975 122.14H233.365V123.37H229.425V124.88H232.925V126.11H229.425V127.77H233.425V129H227.975V122.14ZM235.645 122.14H237.095V127.74H240.795V129H235.645V122.14ZM242.758 122.14H248.148V123.37H244.208V124.88H247.708V126.11H244.208V127.77H248.208V129H242.758V122.14ZM253.498 129.12C251.284 129.12 250.178 127.937 250.178 125.57C250.178 124.383 250.468 123.497 251.048 122.91C251.628 122.317 252.444 122.02 253.498 122.02C254.078 122.02 254.598 122.12 255.058 122.32C255.524 122.513 255.891 122.813 256.158 123.22C256.431 123.62 256.568 124.11 256.568 124.69H255.078C255.078 124.243 254.934 123.893 254.648 123.64C254.361 123.38 253.988 123.25 253.528 123.25C252.901 123.25 252.434 123.437 252.128 123.81C251.821 124.183 251.668 124.72 251.668 125.42V125.72C251.668 127.167 252.288 127.89 253.528 127.89C254.014 127.89 254.401 127.763 254.688 127.51C254.981 127.257 255.128 126.907 255.128 126.46H256.568C256.568 127.047 256.434 127.54 256.168 127.94C255.901 128.333 255.538 128.63 255.078 128.83C254.618 129.023 254.091 129.12 253.498 129.12ZM260.305 123.39H258.185V122.14H263.875V123.39H261.755V129H260.305V123.39ZM265.758 122.14H269.398C270.165 122.14 270.741 122.33 271.128 122.71C271.515 123.083 271.708 123.61 271.708 124.29C271.708 125.25 271.308 125.89 270.508 126.21L271.908 129H270.338L269.128 126.44H267.208V129H265.758V122.14ZM269.268 125.23C269.581 125.23 269.821 125.147 269.988 124.98C270.155 124.813 270.238 124.583 270.238 124.29C270.238 123.997 270.155 123.77 269.988 123.61C269.821 123.45 269.581 123.37 269.268 123.37H267.208V125.23H269.268ZM273.975 122.14H275.425V129H273.975V122.14ZM280.828 129.12C278.615 129.12 277.508 127.937 277.508 125.57C277.508 124.383 277.798 123.497 278.378 122.91C278.958 122.317 279.775 122.02 280.828 122.02C281.408 122.02 281.928 122.12 282.388 122.32C282.855 122.513 283.221 122.813 283.488 123.22C283.761 123.62 283.898 124.11 283.898 124.69H282.408C282.408 124.243 282.265 123.893 281.978 123.64C281.691 123.38 281.318 123.25 280.858 123.25C280.231 123.25 279.765 123.437 279.458 123.81C279.151 124.183 278.998 124.72 278.998 125.42V125.72C278.998 127.167 279.618 127.89 280.858 127.89C281.345 127.89 281.731 127.763 282.018 127.51C282.311 127.257 282.458 126.907 282.458 126.46H283.898C283.898 127.047 283.765 127.54 283.498 127.94C283.231 128.333 282.868 128.63 282.408 128.83C281.948 129.023 281.421 129.12 280.828 129.12ZM285.975 122.14H287.425V129H285.975V122.14ZM291.418 123.39H289.298V122.14H294.988V123.39H292.868V129H291.418V123.39ZM298.821 126.23L296.201 122.14H297.851L299.561 124.94H299.611L301.301 122.14H302.871L300.271 126.23V129H298.821V126.23ZM228.062 133.14H231.332C232.098 133.14 232.675 133.337 233.062 133.73C233.448 134.117 233.642 134.667 233.642 135.38C233.642 136.093 233.438 136.65 233.032 137.05C232.632 137.443 232.032 137.64 231.232 137.64H229.512V140H228.062V133.14ZM231.202 136.41C231.515 136.41 231.755 136.32 231.922 136.14C232.088 135.96 232.172 135.707 232.172 135.38C232.172 135.06 232.088 134.813 231.922 134.64C231.755 134.46 231.515 134.37 231.202 134.37H229.512V136.41H231.202ZM235.732 133.14H239.372C240.138 133.14 240.715 133.33 241.102 133.71C241.488 134.083 241.682 134.61 241.682 135.29C241.682 136.25 241.282 136.89 240.482 137.21L241.882 140H240.312L239.102 137.44H237.182V140H235.732V133.14ZM239.242 136.23C239.555 136.23 239.795 136.147 239.962 135.98C240.128 135.813 240.212 135.583 240.212 135.29C240.212 134.997 240.128 134.77 239.962 134.61C239.795 134.45 239.555 134.37 239.242 134.37H237.182V136.23H239.242ZM247.168 140.12C246.068 140.12 245.215 139.827 244.608 139.24C244.002 138.647 243.698 137.757 243.698 136.57C243.698 135.383 244.002 134.497 244.608 133.91C245.215 133.317 246.068 133.02 247.168 133.02C248.275 133.02 249.132 133.317 249.738 133.91C250.345 134.497 250.648 135.383 250.648 136.57C250.648 137.757 250.345 138.647 249.738 139.24C249.132 139.827 248.275 140.12 247.168 140.12ZM247.168 138.89C247.822 138.89 248.315 138.703 248.648 138.33C248.988 137.95 249.158 137.413 249.158 136.72V136.42C249.158 135.727 248.988 135.193 248.648 134.82C248.315 134.44 247.822 134.25 247.168 134.25C246.515 134.25 246.022 134.44 245.688 134.82C245.355 135.193 245.188 135.727 245.188 136.42V136.72C245.188 137.413 245.355 137.95 245.688 138.33C246.022 138.703 246.515 138.89 247.168 138.89ZM252.732 133.14H255.572C256.618 133.14 257.425 133.427 257.992 134C258.565 134.567 258.852 135.423 258.852 136.57C258.852 137.717 258.565 138.577 257.992 139.15C257.425 139.717 256.618 140 255.572 140H252.732V133.14ZM255.572 138.77C256.158 138.77 256.602 138.593 256.902 138.24C257.208 137.88 257.362 137.373 257.362 136.72V136.42C257.362 135.767 257.208 135.263 256.902 134.91C256.602 134.55 256.158 134.37 255.572 134.37H254.182V138.77H255.572ZM263.878 140.12C262.952 140.12 262.232 139.893 261.718 139.44C261.205 138.987 260.948 138.323 260.948 137.45V133.14H262.398V137.38C262.398 137.873 262.525 138.25 262.778 138.51C263.038 138.763 263.405 138.89 263.878 138.89C264.352 138.89 264.718 138.763 264.978 138.51C265.245 138.25 265.378 137.873 265.378 137.38V133.14H266.828V137.45C266.828 138.323 266.568 138.987 266.048 139.44C265.535 139.893 264.812 140.12 263.878 140.12ZM272.235 140.12C270.022 140.12 268.915 138.937 268.915 136.57C268.915 135.383 269.205 134.497 269.785 133.91C270.365 133.317 271.182 133.02 272.235 133.02C272.815 133.02 273.335 133.12 273.795 133.32C274.262 133.513 274.628 133.813 274.895 134.22C275.168 134.62 275.305 135.11 275.305 135.69H273.815C273.815 135.243 273.672 134.893 273.385 134.64C273.098 134.38 272.725 134.25 272.265 134.25C271.638 134.25 271.172 134.437 270.865 134.81C270.558 135.183 270.405 135.72 270.405 136.42V136.72C270.405 138.167 271.025 138.89 272.265 138.89C272.752 138.89 273.138 138.763 273.425 138.51C273.718 138.257 273.865 137.907 273.865 137.46H275.305C275.305 138.047 275.172 138.54 274.905 138.94C274.638 139.333 274.275 139.63 273.815 139.83C273.355 140.023 272.828 140.12 272.235 140.12ZM279.042 134.39H276.922V133.14H282.612V134.39H280.492V140H279.042V134.39ZM284.495 133.14H285.945V140H284.495V133.14ZM291.498 140.12C290.398 140.12 289.545 139.827 288.938 139.24C288.332 138.647 288.028 137.757 288.028 136.57C288.028 135.383 288.332 134.497 288.938 133.91C289.545 133.317 290.398 133.02 291.498 133.02C292.605 133.02 293.462 133.317 294.068 133.91C294.675 134.497 294.978 135.383 294.978 136.57C294.978 137.757 294.675 138.647 294.068 139.24C293.462 139.827 292.605 140.12 291.498 140.12ZM291.498 138.89C292.152 138.89 292.645 138.703 292.978 138.33C293.318 137.95 293.488 137.413 293.488 136.72V136.42C293.488 135.727 293.318 135.193 292.978 134.82C292.645 134.44 292.152 134.25 291.498 134.25C290.845 134.25 290.352 134.44 290.018 134.82C289.685 135.193 289.518 135.727 289.518 136.42V136.72C289.518 137.413 289.685 137.95 290.018 138.33C290.352 138.703 290.845 138.89 291.498 138.89ZM297.062 133.14H298.472L301.112 136.87C301.192 136.983 301.325 137.207 301.512 137.54L301.562 137.51L301.532 136.93V133.14H302.942V140H301.532L298.882 136.24C298.755 136.06 298.625 135.84 298.492 135.58L298.442 135.61C298.462 135.897 298.472 136.097 298.472 136.21V140H297.062V133.14Z" fill="#3A0B5C"/>
</svg>
