<svg width="337" height="193" viewBox="0 0 337 193" fill="none" xmlns="http://www.w3.org/2000/svg">
<g opacity="0.8">
<path d="M131.148 42.2365L132.872 100.788C132.913 102.176 131.99 103.439 130.603 103.486C130.464 103.491 130.322 103.493 130.18 103.492C128.914 103.479 128.123 102.309 128.148 101.043L129.259 44.6854L129.684 44.1338C126.799 47.7725 121.488 54.056 119.14 56.3302C118.513 56.9376 118.329 56.6819 118.836 55.971C121.547 52.1671 129.877 40.504 130.563 39.864C131.383 39.0988 132.347 40.0936 131.603 41.5477C131.529 41.6923 131.34 41.9692 131.06 42.3501L131.148 42.2365Z" fill="#3A0B5C"/>
<path d="M131.305 38.902C129.865 39.3915 128.12 34.4015 126.706 28.8072C126.409 27.6308 127.772 27.2458 128.191 28.3849C129.477 31.8877 130.657 35.1002 130.859 35.6549C131.333 36.9559 132.172 38.6076 131.305 38.902Z" fill="#3A0B5C"/>
<path d="M133.314 40.2467C133.964 40.4578 136.411 41.1918 139.391 42.0621C140.56 42.4037 141.021 41.1197 139.886 40.6753C136.124 39.2016 132.653 38.0899 132.198 38.7926C132.002 39.0952 131.9 39.7875 133.314 40.2467Z" fill="#3A0B5C"/>
<path d="M131.148 42.2365L132.872 100.788C132.913 102.176 131.99 103.439 130.603 103.486C130.464 103.491 130.322 103.493 130.18 103.492C128.914 103.479 128.123 102.309 128.148 101.043L129.259 44.6854L131.148 42.2365ZM131.305 38.902C129.865 39.3915 128.12 34.4015 126.706 28.8072C126.409 27.6308 127.772 27.2458 128.191 28.3849C129.477 31.8877 130.657 35.1002 130.859 35.6549C131.333 36.9559 132.172 38.6076 131.305 38.902ZM130.563 39.864C131.383 39.0988 132.347 40.0936 131.603 41.5477C130.984 42.7577 122.329 53.2415 119.14 56.3302C118.513 56.9376 118.329 56.6819 118.836 55.971C121.547 52.1671 129.877 40.504 130.563 39.864ZM132.198 38.7926C132.002 39.0952 131.9 39.7875 133.314 40.2467C133.964 40.4578 136.411 41.1918 139.391 42.0621C140.56 42.4037 141.021 41.1197 139.886 40.6753C136.124 39.2016 132.653 38.0899 132.198 38.7926Z" stroke="#F0F0F0"/>
<path d="M109.357 52.8726L111.396 122.49C111.437 123.875 110.518 125.129 109.135 125.223C108.719 125.251 108.282 125.26 107.846 125.24C106.583 125.18 105.801 124.009 105.826 122.745L107.138 55.7663L107.638 55.1145C104.169 59.515 97.7138 67.1893 95.0622 69.7071C94.4321 70.3054 94.2338 70.0314 94.7361 69.3224C97.742 65.0793 107.851 50.8384 108.671 50.0694C109.634 49.1652 110.766 50.3407 109.892 52.0588C109.805 52.2296 109.584 52.5569 109.254 53.007L109.357 52.8726Z" fill="#3A0B5C"/>
<path d="M109.542 48.9327C107.696 49.5637 105.425 42.4895 103.696 35.1888C103.417 34.0075 104.827 33.6142 105.244 34.7545C106.984 39.52 108.747 44.3487 109.018 45.096C109.575 46.6333 110.56 48.5848 109.542 48.9327Z" fill="#3A0B5C"/>
<path d="M111.902 50.5216C112.801 50.8152 116.625 51.9649 120.952 53.2258C122.122 53.5665 122.603 52.2357 121.476 51.7735C116.404 49.6928 111.201 47.8578 110.591 48.8035C110.361 49.1609 110.242 49.979 111.902 50.5216Z" fill="#3A0B5C"/>
<path d="M109.357 52.8726L111.396 122.49C111.437 123.875 110.518 125.129 109.135 125.223C108.719 125.251 108.282 125.26 107.846 125.24C106.583 125.18 105.801 124.009 105.826 122.745L107.138 55.7663L109.357 52.8726ZM109.542 48.9327C107.696 49.5637 105.425 42.4895 103.696 35.1888C103.417 34.0075 104.827 33.6142 105.244 34.7545C106.984 39.52 108.747 44.3487 109.018 45.096C109.575 46.6333 110.56 48.5848 109.542 48.9327ZM108.671 50.0694C109.634 49.1652 110.766 50.3407 109.892 52.0588C109.152 53.5132 98.6417 66.3083 95.0622 69.7071C94.4321 70.3054 94.2338 70.0314 94.7361 69.3224C97.742 65.0793 107.851 50.8384 108.671 50.0694ZM110.591 48.8035C110.361 49.1609 110.242 49.979 111.902 50.5216C112.801 50.8152 116.625 51.9649 120.952 53.2258C122.122 53.5665 122.603 52.2357 121.476 51.7735C116.404 49.6928 111.201 47.8578 110.591 48.8035Z" stroke="#F0F0F0"/>
<path d="M76.284 61.2288L78.9157 147.928C78.9581 149.325 78.0285 150.578 76.6385 150.72C75.7489 150.811 74.7528 150.846 73.7836 150.756C72.5111 150.638 71.7186 149.457 71.7445 148.18L73.4381 64.8101L74.0791 64.0035C69.5127 69.5923 60.9128 79.4477 57.6906 82.2954C57.0205 82.8876 56.8111 82.566 57.3402 81.8451C60.94 76.9412 74.3345 58.7273 75.4033 57.7594C76.6391 56.6402 78.0913 58.0951 76.9702 60.2215C76.8588 60.4329 76.5744 60.838 76.1519 61.395L76.284 61.2288Z" fill="#3A0B5C"/>
<path d="M76.5218 56.3525C73.9092 57.2141 70.6324 46.4671 68.3591 36.5427C68.0888 35.3628 69.5475 34.9474 69.976 36.0795C72.4909 42.7229 75.4477 50.5353 75.8491 51.604C76.5638 53.5065 77.8276 55.9219 76.5218 56.3525Z" fill="#3A0B5C"/>
<path d="M79.5487 58.3189C80.8838 58.7398 87.2541 60.5823 93.8294 62.4134C95.0055 62.741 95.4913 61.3505 94.3614 60.8881C87.1724 57.9466 78.751 54.869 77.8671 56.1925C77.5716 56.6349 77.4186 57.6474 79.5487 58.3189Z" fill="#3A0B5C"/>
<path d="M76.284 61.2288L78.9157 147.928C78.9581 149.325 78.0285 150.578 76.6385 150.72C75.7489 150.811 74.7528 150.846 73.7836 150.756C72.5111 150.638 71.7186 149.457 71.7445 148.18L73.4381 64.8101L76.284 61.2288ZM76.5218 56.3525C73.9092 57.2141 70.6324 46.4671 68.3591 36.5427C68.0888 35.3628 69.5475 34.9474 69.976 36.0795C72.4909 42.7229 75.4477 50.5353 75.8491 51.604C76.5638 53.5065 77.8276 55.9219 76.5218 56.3525ZM75.4033 57.7594C76.6391 56.6402 78.0913 58.0951 76.9702 60.2215C76.0028 62.0565 62.0115 78.4767 57.6906 82.2954C57.0205 82.8876 56.8111 82.566 57.3402 81.8451C60.94 76.9412 74.3345 58.7273 75.4033 57.7594ZM77.8671 56.1925C77.5716 56.6349 77.4186 57.6474 79.5487 58.3189C80.8838 58.7398 87.2541 60.5823 93.8294 62.4134C95.0055 62.741 95.4913 61.3505 94.3614 60.8881C87.1724 57.9466 78.751 54.869 77.8671 56.1925Z" stroke="#F0F0F0"/>
<path d="M142.494 108.424L170.148 109.514L199.081 110.653L226.236 111.723L248.205 112.588C249.957 112.657 251.591 113.489 252.678 114.865L258.563 122.317L268.746 135.214L277.016 146.075C278.494 148.016 277.161 150.815 274.723 150.891L258.563 151.396L250.319 151.482L222.518 151.773L215.244 151.849L188.413 152.129L139.614 152.627C137.915 152.644 136.528 151.271 136.528 149.572L137.798 132.515L138.789 119.194L139.384 111.199C139.504 109.588 140.879 108.361 142.494 108.424Z" fill="#3A0B5C"/>
<path d="M170.148 109.514L142.494 108.424C140.879 108.361 139.504 109.588 139.384 111.199L138.789 119.194M170.148 109.514L177.422 152.129M170.148 109.514L199.081 110.653M199.081 110.653L215.244 151.849M199.081 110.653L226.236 111.723M226.236 111.723L248.205 112.588C249.957 112.657 251.591 113.489 252.678 114.865L258.563 122.317M226.236 111.723L250.319 151.482M138.789 119.194L258.563 122.317M138.789 119.194L137.798 132.515M258.563 122.317L268.746 135.214M268.746 135.214L137.798 132.515M268.746 135.214L277.016 146.075C278.494 148.016 277.161 150.815 274.723 150.891L258.563 151.396M137.798 132.515L136.528 149.572V149.572C136.528 151.271 137.915 152.644 139.614 152.627L188.413 152.129L222.518 151.773L258.563 151.396M150.914 152.658L151.227 155.178C151.416 156.701 152.725 157.835 154.259 157.807L255.364 155.954C256.835 155.927 258.07 154.837 258.278 153.38L258.563 151.396" stroke="#F0F0F0"/>
</g>
</svg>
