<svg width="332" height="190" viewBox="0 0 332 190" fill="none" xmlns="http://www.w3.org/2000/svg">
<g opacity="0.8">
<path d="M162.927 68.581C174.688 66.249 193.04 65.3817 206.803 65.9686C211.972 66.189 216.493 66.6145 219.775 67.2445C233.701 69.9176 244.155 75.6837 252.396 85.0012C253.032 85.5741 254.823 86.7996 256.784 87.1016C259.264 87.4834 260.98 88.2472 262.507 90.7293C263.728 92.715 264.669 105.431 264.987 111.541C265.177 113.705 264.872 118.605 262.125 120.897C261.362 124.27 259.454 130.634 255.639 133.498C251.824 136.362 247.436 135.484 245.338 134.644C243.239 133.804 240.187 131.78 238.852 128.152C223.273 129.298 189.711 132.429 180.096 135.789C179.397 137.699 175.327 142.962 170.939 145.336C166.552 147.71 160.447 147.436 157.776 146.482C155.106 145.527 151.481 143.198 148.429 139.226H147.094H141.065C140.602 139.226 140.226 138.851 140.226 138.388C140.226 137.909 139.827 137.527 139.348 137.547C129.69 137.949 110.877 137.878 105.698 137.508C104.553 138.972 100.356 141.517 92.7255 141.517C90.2456 141.517 83.9503 141.021 77.0828 135.217C75.3158 135.274 71.5665 135.044 69.3795 133.786C68.9128 133.518 68.6657 133.005 68.6367 132.467C68.5003 129.94 68.5178 126.906 68.6891 124.333C67.7353 123.188 66.3999 123.761 66.3999 118.415C66.3999 115.869 66.7026 113.713 67.0198 112.153C67.3826 110.368 68.995 109.186 69.756 107.531C69.9609 107.086 70.0244 106.577 69.8337 106.004C70.9147 103.522 74.2594 98.1375 78.9904 96.4573C84.9041 94.357 110.158 87.4326 119.433 88.8199C128.288 82.9945 148.161 71.5089 162.927 68.581Z" fill="#3A0B5C"/>
<path d="M119.433 88.8199C119.457 88.8031 119.408 88.8369 119.433 88.8199ZM119.433 88.8199C110.158 87.4326 84.9041 94.357 78.9904 96.4573C74.2594 98.1375 70.9147 103.522 69.8337 106.004C70.0244 106.577 69.9609 107.086 69.756 107.531M119.433 88.8199C120.091 88.3617 118.617 89.3567 119.433 88.8199ZM119.433 88.8199C128.288 82.9945 148.161 71.5089 162.927 68.581C179.104 65.3733 207.753 64.9368 219.775 67.2445C233.701 69.9176 244.155 75.6837 252.396 85.0012C253.032 85.5741 254.823 86.7996 256.784 87.1016C259.264 87.4834 260.98 88.2472 262.507 90.7293C263.728 92.715 264.669 105.431 264.987 111.541C265.177 113.705 264.872 118.605 262.125 120.897M119.433 88.8199C137.873 89.0812 177.883 87.5215 181.241 85.3831C185.437 82.7101 198.6 65.9686 206.803 65.9686M262.125 120.897C261.362 124.27 259.454 130.634 255.639 133.498C251.824 136.362 247.436 135.484 245.338 134.644C243.239 133.804 240.187 131.78 238.852 128.152M262.125 120.897C262.789 113.896 262.421 99.7795 255.639 99.3213C247.162 98.7485 245.91 116.696 245.338 122.615C244.88 127.35 240.823 128.279 238.852 128.152M238.852 128.152C223.273 129.298 189.711 132.429 180.096 135.789M180.096 135.789C179.397 137.699 175.327 142.962 170.939 145.336C166.552 147.71 160.447 147.436 157.776 146.482C155.106 145.527 151.481 143.198 148.429 139.226M180.096 135.789C184.293 124.333 183.148 99.5931 168.65 100.276C152.435 101.04 152.817 133.307 152.817 136.744C152.817 138.463 150.909 139.417 148.429 139.226M148.429 139.226H147.094H141.065C140.602 139.226 140.226 138.851 140.226 138.388V138.388C140.226 137.909 139.827 137.527 139.348 137.547C129.69 137.949 110.877 137.878 105.698 137.508M105.698 137.508C104.553 138.972 100.356 141.517 92.7255 141.517C90.2456 141.517 83.9503 141.021 77.0828 135.217M105.698 137.508L77.0828 135.217M77.0828 135.217C75.3158 135.274 71.5665 135.044 69.3795 133.786C68.9128 133.518 68.6657 133.005 68.6367 132.467C68.5003 129.94 68.5178 126.906 68.6891 124.333C67.7353 123.188 66.3999 123.761 66.3999 118.415C66.3999 115.869 66.7026 113.713 67.0198 112.153C67.3826 110.368 68.995 109.186 69.756 107.531V107.531M69.756 107.531C71.6895 107.404 75.3659 105.622 74.6028 99.5122M210.809 69.5357C204.762 70.3427 196.474 78.9039 191.54 85.1719C190.14 86.9494 190.689 88.8902 192.942 89.1021C197.179 89.5009 205.53 89.5235 220.538 88.2472C243.888 86.2615 246.101 81.5645 243.812 79.6552C226.452 68.5811 216.532 68.772 210.809 69.5357ZM131.934 108.29V108.29C132.244 108.419 132.583 108.48 132.918 108.463C141.956 107.988 147.838 104.189 150.864 101.065C151.89 100.005 151.104 98.4445 149.63 98.4005C133.898 97.9306 121.179 102.063 114.635 105.233C113.065 105.994 112.857 107.91 114.542 108.359C118.17 109.328 124.081 108.686 128.188 107.925C129.448 107.691 130.751 107.796 131.934 108.29Z" stroke="#F0F0F0"/>
</g>
</svg>
