<svg width="335" height="267" viewBox="0 0 335 267" fill="none" xmlns="http://www.w3.org/2000/svg">
<g opacity="0.5">
<path d="M154.299 69.3244L210.789 61.0212C211.967 60.848 213.161 60.8069 214.349 60.8987L323.375 69.3244M154.299 69.3244L185.477 74.3474L216.655 79.3704L247.833 84.3933L276.038 88.9373C277.977 89.2497 279.966 88.9842 281.755 88.174L301.193 79.3704L323.375 69.3244M154.299 69.3244L155.001 76.303M323.375 69.3244V77.8058M159.912 125.154L160.188 127.894C160.311 129.122 161.174 130.149 162.362 130.482L190.095 138.269L222.272 147.304L253.212 155.991L278.813 163.18C282.134 164.112 285.702 163.267 288.251 160.944L306.746 144.093L320.11 131.916C322.189 130.021 323.375 127.308 323.375 124.495V124.495M159.912 125.154L149.418 129.344C146.771 130.401 146.951 134.207 149.687 135.009L283.97 174.389C285.022 174.698 286.158 174.408 286.933 173.634L330.067 130.597C331.764 128.904 330.889 126.004 328.539 125.532L323.375 124.495M159.912 125.154L159.591 120.81M323.375 124.495V117.249M323.375 124.495L284.699 154.353C283.95 154.931 282.973 155.122 282.062 154.868L159.591 120.81M157.106 97.239L280.384 126.761C281.152 126.944 281.96 126.818 282.636 126.41L323.375 101.768M157.106 97.239L156.404 90.2603M157.106 97.239L157.807 104.218M155.703 83.2817L279.275 108.027C279.937 108.16 280.624 108.065 281.225 107.759L323.375 86.2872M155.703 83.2817L155.001 76.303M155.703 83.2817L156.404 90.2603M158.509 111.196L281.494 145.48C282.363 145.723 283.294 145.561 284.031 145.041L323.375 117.249M158.509 111.196L157.807 104.218M158.509 111.196L159.591 120.81M323.375 86.2872V77.8058M323.375 86.2872V94.0276M323.375 117.249V109.508M323.375 101.768V94.0276M323.375 101.768V109.508M155.001 76.303L278.697 98.6512C279.319 98.7636 279.961 98.6767 280.53 98.4028L323.375 77.8058M156.404 90.2603L279.829 117.396C280.545 117.553 281.292 117.443 281.932 117.087L323.375 94.0276M157.807 104.218L280.939 136.122C281.758 136.334 282.628 136.191 283.335 135.728L323.375 109.508" stroke="white"/>
<path d="M158.679 70.1478L154.49 69.4891L160.583 129.93L164.771 130.918L158.679 70.1478Z" fill="#3A0B5C"/>
<path d="M188.381 75.0885L182.479 74.1003L185.716 136.846L192.189 138.658L188.381 75.0885Z" fill="#3A0B5C"/>
<path d="M218.845 81.5113L211.991 80.0291L213.895 144.093L221.13 146.069L218.845 81.5113Z" fill="#3A0B5C"/>
<path d="M251.975 87.4401L246.263 86.1226V152.986L253.117 155.127L251.975 87.4401Z" fill="#3A0B5C"/>
<path d="M278.44 89.7457L276.536 90.4044L279.773 161.879L283.581 163.361L286.247 160.397L283.01 89.7457H278.44Z" fill="#3A0B5C"/>
<path d="M320.899 130.094L320.709 71.7947L323.184 70.6419V127.789L320.899 130.094Z" fill="#3A0B5C"/>
<path d="M304.335 78.8763L299.194 80.8526L303.954 145.41L308.714 140.47L304.335 78.8763Z" fill="#3A0B5C"/>
<path d="M117.205 35.1789L119.771 122.456C119.812 123.843 118.894 125.091 117.514 125.233C116.664 125.321 115.716 125.354 114.793 125.268C113.532 125.151 112.754 123.977 112.779 122.711L114.43 38.7826L115.055 37.971C110.595 43.6053 102.189 53.5488 99.0621 56.3932C98.4172 56.9797 98.2105 56.666 98.7157 55.9556C102.191 51.0681 115.302 32.6639 116.346 31.6878C117.551 30.5617 118.966 32.0257 117.873 34.1654C117.765 34.3781 117.488 34.7857 117.076 35.3462L117.205 35.1789Z" fill="#3A0B5C"/>
<path d="M117.436 30.2722C114.909 31.1325 111.745 20.4909 109.531 10.5696C109.266 9.38514 110.728 8.97906 111.146 10.1185C113.577 16.7488 116.394 24.4318 116.781 25.494C117.477 27.4085 118.709 29.8389 117.436 30.2722Z" fill="#3A0B5C"/>
<path d="M120.387 32.2509C121.689 32.6747 127.907 34.531 134.321 36.3748C135.492 36.7113 135.991 35.3283 134.869 34.8541C127.852 31.8888 119.611 28.7767 118.748 30.1112C118.46 30.5564 118.311 31.5752 120.387 32.2509Z" fill="#3A0B5C"/>
<path d="M117.205 35.1789L119.771 122.456C119.812 123.843 118.894 125.091 117.514 125.233C116.664 125.321 115.716 125.354 114.793 125.268C113.532 125.151 112.754 123.977 112.779 122.711L114.43 38.7826L115.055 37.971C110.595 43.6053 102.189 53.5488 99.0621 56.3932C98.4172 56.9797 98.2105 56.666 98.7157 55.9556C102.191 51.0681 115.302 32.6639 116.346 31.6878C117.551 30.5617 118.966 32.0257 117.873 34.1654C117.765 34.3781 117.488 34.7857 117.076 35.3462L117.205 35.1789Z" stroke="white"/>
<path d="M117.436 30.2722C114.909 31.1325 111.745 20.4909 109.531 10.5696C109.266 9.38514 110.728 8.97906 111.146 10.1185C113.577 16.7488 116.394 24.4318 116.781 25.494C117.477 27.4085 118.709 29.8389 117.436 30.2722Z" stroke="white"/>
<path d="M120.387 32.2509C121.689 32.6747 127.907 34.531 134.321 36.3748C135.492 36.7113 135.991 35.3283 134.869 34.8541C127.852 31.8888 119.611 28.7767 118.748 30.1112C118.46 30.5564 118.311 31.5752 120.387 32.2509Z" stroke="white"/>
<path d="M78.4237 51.4197L81.4515 154.978C81.492 156.363 80.5773 157.607 79.2025 157.778C77.9926 157.93 76.5703 157.996 75.2181 157.827C73.9644 157.67 73.1918 156.497 73.2165 155.234L75.1645 55.6777L75.8986 54.7186C70.5674 61.4927 60.4356 73.5388 56.922 76.655C56.2728 77.2308 56.0498 76.8923 56.5507 76.1837C60.3873 70.7566 76.1727 48.4629 77.4151 47.2947C78.8304 45.9641 80.4934 47.6939 79.2096 50.2221C79.0819 50.4735 78.7563 50.955 78.2724 51.6174L78.4237 51.4197Z" fill="#3A0B5C"/>
<path d="M78.696 45.622C75.5718 46.6916 71.6182 32.7124 69.0096 20.5117C68.7558 19.3244 70.2507 18.9157 70.6666 20.0564C73.6453 28.225 77.4372 38.6262 77.9257 39.9762C78.7441 42.2383 80.1915 45.1101 78.696 45.622Z" fill="#3A0B5C"/>
<path d="M82.1625 47.96C83.8216 48.5031 92.2714 51.0365 100.443 53.3831C101.613 53.7193 102.131 52.307 101.013 51.8236C92.4424 48.1169 81.3274 43.736 80.2367 45.4318C79.8983 45.9578 79.7231 47.1616 82.1625 47.96Z" fill="#3A0B5C"/>
<path d="M78.4237 51.4197L81.4515 154.978C81.492 156.363 80.5773 157.607 79.2025 157.778C77.9926 157.93 76.5703 157.996 75.2181 157.827C73.9644 157.67 73.1918 156.497 73.2165 155.234L75.1645 55.6777L75.8986 54.7186C70.5674 61.4927 60.4356 73.5388 56.922 76.655C56.2728 77.2308 56.0498 76.8923 56.5507 76.1837C60.3873 70.7566 76.1727 48.4629 77.4151 47.2947C78.8304 45.9641 80.4934 47.6939 79.2096 50.2221C79.0819 50.4735 78.7563 50.955 78.2724 51.6174L78.4237 51.4197Z" stroke="white"/>
<path d="M78.696 45.622C75.5718 46.6916 71.6182 32.7124 69.0096 20.5117C68.7558 19.3244 70.2507 18.9157 70.6666 20.0564C73.6453 28.225 77.4372 38.6262 77.9257 39.9762C78.7441 42.2383 80.1915 45.1101 78.696 45.622Z" stroke="white"/>
<path d="M82.1625 47.96C83.8216 48.5031 92.2714 51.0365 100.443 53.3831C101.613 53.7193 102.131 52.307 101.013 51.8236C92.4424 48.1169 81.3274 43.736 80.2367 45.4318C79.8983 45.9578 79.7231 47.1616 82.1625 47.96Z" stroke="white"/>
<path d="M29.8388 72.7828L33.739 201.489C33.7813 202.886 32.8539 204.134 31.4716 204.334C29.6396 204.6 27.3048 204.743 25.1706 204.4C23.9095 204.198 23.1239 203.018 23.1498 201.741L25.6581 78.0529L26.5997 76.8658C19.6152 85.4289 6.20685 100.799 1.98072 104.247C1.28885 104.812 1.05755 104.421 1.58528 103.7C6.13638 97.4873 26.9292 69.1434 28.5451 67.6775C30.3605 66.0306 32.4937 68.1716 30.8469 71.3007C30.6831 71.6118 30.2654 72.2078 29.6447 73.0275L29.8388 72.7828Z" fill="#3A0B5C"/>
<path d="M30.1881 65.6073C25.929 67.0142 20.4684 47.3842 17.154 31.7171C16.9035 30.5327 18.4283 30.102 18.8563 31.2344C22.7703 41.5908 28.5153 56.7939 29.2 58.6197C30.2498 61.4194 32.1064 64.9737 30.1881 65.6073Z" fill="#3A0B5C"/>
<path d="M34.6347 68.501C36.9447 69.2305 49.5166 72.8622 60.7552 75.9503C61.9324 76.2737 62.4448 74.8141 61.3211 74.3373C50.1241 69.587 33.6727 63.1093 32.1644 65.3719C31.7303 66.0229 31.5056 67.5128 34.6347 68.501Z" fill="#3A0B5C"/>
<path d="M29.8388 72.7828L33.739 201.489C33.7813 202.886 32.8539 204.134 31.4716 204.334C29.6396 204.6 27.3048 204.743 25.1706 204.4C23.9095 204.198 23.1239 203.018 23.1498 201.741L25.6581 78.0529L26.5997 76.8658C19.6152 85.4289 6.20685 100.799 1.98072 104.247C1.28885 104.812 1.05755 104.421 1.58528 103.7C6.13638 97.4873 26.9292 69.1434 28.5451 67.6775C30.3605 66.0306 32.4937 68.1716 30.8469 71.3007C30.6831 71.6118 30.2654 72.2078 29.6447 73.0275L29.8388 72.7828Z" stroke="white"/>
<path d="M30.1881 65.6073C25.929 67.0142 20.4684 47.3842 17.154 31.7171C16.9035 30.5327 18.4283 30.102 18.8563 31.2344C22.7703 41.5908 28.5153 56.7939 29.2 58.6197C30.2498 61.4194 32.1064 64.9737 30.1881 65.6073Z" stroke="white"/>
<path d="M34.6347 68.501C36.9447 69.2305 49.5166 72.8622 60.7552 75.9503C61.9324 76.2737 62.4448 74.8141 61.3211 74.3373C50.1241 69.587 33.6727 63.1093 32.1644 65.3719C31.7303 66.0229 31.5056 67.5128 34.6347 68.501Z" stroke="white"/>
<path d="M115.496 169.192L87.2634 168.086C85.6492 168.023 84.2748 169.249 84.1543 170.86L83.5449 179.006M115.496 169.192L122.907 212.396M115.496 169.192L144.975 170.347M144.975 170.347L161.444 212.111M144.975 170.347L172.643 171.432M172.643 171.432L195.088 172.311C196.835 172.38 198.466 173.207 199.553 174.577L205.581 182.173M172.643 171.432L197.181 211.74M83.5449 179.006L205.581 182.173M83.5449 179.006L82.5347 192.511M205.581 182.173L215.956 195.247M215.956 195.247L82.5347 192.511M215.956 195.247L220.876 201.675C223.845 205.555 221.18 211.167 216.297 211.319L205.581 211.652M82.5347 192.511L81.2412 209.803V209.803C81.2412 211.526 82.6472 212.918 84.3701 212.9L134.106 212.396L168.855 212.034L205.581 211.652M95.8984 212.932L96.2226 215.526C96.4129 217.048 97.7205 218.181 99.2541 218.153L202.371 216.272C203.842 216.246 205.076 215.157 205.286 213.701L205.581 211.652" stroke="white"/>
<path d="M212.9 207.105C221.618 205.368 235.221 204.722 245.422 205.159C249.253 205.323 252.605 205.64 255.038 206.109C265.36 208.1 273.108 212.394 279.217 219.332C279.688 219.758 281.016 220.671 282.469 220.896C284.307 221.18 285.58 221.749 286.711 223.597C287.616 225.076 288.314 234.545 288.549 239.095C288.691 240.706 288.464 244.355 286.428 246.061C285.863 248.573 284.449 253.312 281.621 255.445C278.793 257.578 275.54 256.924 273.985 256.298C272.43 255.672 270.167 254.165 269.178 251.464C257.63 252.317 232.753 254.649 225.626 257.151C225.108 258.573 222.091 262.492 218.839 264.26C215.587 266.028 211.062 265.824 209.083 265.113C207.103 264.402 204.417 262.668 202.154 259.71H201.164H196.698C196.354 259.71 196.074 259.431 196.074 259.086C196.074 258.729 195.776 258.445 195.42 258.46C188.26 258.759 174.319 258.706 170.481 258.431C169.632 259.521 166.521 261.416 160.865 261.416C159.027 261.416 154.361 261.047 149.271 256.725C148.01 256.765 145.39 256.609 143.749 255.762C143.272 255.516 143.025 255.001 142.999 254.465C142.91 252.627 142.927 250.464 143.049 248.62C142.342 247.767 141.352 248.194 141.352 244.213C141.352 242.315 141.577 240.708 141.813 239.546C142.081 238.22 143.277 237.339 143.84 236.109C143.992 235.777 144.039 235.398 143.897 234.971C144.699 233.123 147.178 229.114 150.685 227.863C155.068 226.299 173.787 221.142 180.661 222.175C187.225 217.838 201.956 209.285 212.9 207.105Z" fill="#3A0B5C"/>
<path d="M180.661 222.175C180.679 222.163 180.643 222.188 180.661 222.175ZM180.661 222.175C173.787 221.142 155.068 226.299 150.685 227.863C147.178 229.114 144.699 233.123 143.897 234.971C144.039 235.398 143.992 235.777 143.84 236.109M180.661 222.175C181.15 221.834 180.057 222.575 180.661 222.175ZM180.661 222.175C187.225 217.838 201.956 209.285 212.9 207.105C224.891 204.716 246.126 204.391 255.038 206.109C265.36 208.1 273.108 212.394 279.217 219.332C279.688 219.758 281.016 220.671 282.469 220.896C284.307 221.18 285.58 221.749 286.711 223.597C287.616 225.076 288.314 234.545 288.549 239.095C288.691 240.706 288.464 244.355 286.428 246.061M180.661 222.175C194.33 222.37 223.986 221.209 226.475 219.616C229.586 217.626 239.342 205.159 245.422 205.159M286.428 246.061C285.863 248.573 284.449 253.312 281.621 255.445C278.793 257.578 275.54 256.924 273.985 256.298C272.43 255.672 270.167 254.165 269.178 251.464M286.428 246.061C286.92 240.848 286.647 230.336 281.621 229.995C275.337 229.569 274.409 242.933 273.985 247.341C273.646 250.867 270.639 251.559 269.178 251.464M269.178 251.464C257.63 252.317 232.753 254.649 225.626 257.151M225.626 257.151C225.108 258.573 222.091 262.492 218.839 264.26C215.587 266.028 211.062 265.824 209.083 265.113C207.103 264.402 204.417 262.668 202.154 259.71M225.626 257.151C228.737 248.62 227.889 230.198 217.142 230.706C205.124 231.275 205.406 255.303 205.406 257.862C205.406 259.142 203.992 259.852 202.154 259.71M202.154 259.71H201.164H196.698C196.354 259.71 196.074 259.431 196.074 259.086V259.086C196.074 258.729 195.776 258.445 195.42 258.46C188.26 258.759 174.319 258.706 170.481 258.431M170.481 258.431C169.632 259.521 166.521 261.416 160.865 261.416C159.027 261.416 154.361 261.047 149.271 256.725M170.481 258.431L149.271 256.725M149.271 256.725C148.01 256.765 145.39 256.609 143.749 255.762C143.272 255.516 143.025 255.001 142.999 254.465C142.91 252.627 142.927 250.464 143.049 248.62C142.342 247.767 141.352 248.194 141.352 244.213C141.352 242.315 141.577 240.708 141.813 239.546C142.081 238.22 143.277 237.339 143.84 236.109V236.109M143.84 236.109C145.273 236.014 147.998 234.687 147.432 230.137M248.392 207.816C244.147 208.385 238.413 214.132 234.711 218.703C233.292 220.455 233.869 222.318 236.119 222.462C239.499 222.677 245.527 222.61 255.603 221.749C272.91 220.27 274.551 216.773 272.854 215.351C259.987 207.105 252.634 207.247 248.392 207.816ZM189.927 236.673V236.673C190.157 236.77 190.408 236.816 190.657 236.802C196.82 236.477 201.003 234.057 203.38 231.86C204.462 230.86 203.7 229.315 202.228 229.291C191.507 229.113 182.757 231.802 177.847 234.048C176.266 234.771 176.122 236.607 177.837 236.898C180.537 237.356 184.392 236.916 187.15 236.402C188.085 236.228 189.051 236.306 189.927 236.673Z" stroke="white"/>
</g>
</svg>
