<svg width="329" height="188" viewBox="0 0 329 188" fill="none" xmlns="http://www.w3.org/2000/svg">
<g opacity="0.8">
<path d="M86.8909 53.0007L139.27 44.1187C140.623 43.8893 141.999 43.8349 143.366 43.9567L244.806 53.0007M86.8909 53.0007L116.011 58.413L145.131 63.8253L174.251 69.2376L199.974 74.0187C202.175 74.4277 204.449 74.0866 206.433 73.0502L224.088 63.8253L244.806 53.0007M86.8909 53.0007L87.5462 60.5203M244.806 53.0007V62.1395M92.1331 113.157L92.4089 116.322C92.5135 117.523 93.3265 118.545 94.4731 118.916L120.323 127.29L150.377 137.025L179.275 146.385L202.184 153.806C205.844 154.992 209.859 153.973 212.511 151.185L229.274 133.564L242.051 120.134C243.819 118.275 244.806 115.808 244.806 113.242V112.447M92.1331 113.157L81.641 117.99C79.1772 119.125 79.3652 122.688 81.9347 123.557L207.689 166.103C208.842 166.493 210.116 166.148 210.915 165.229L251.494 118.519C252.977 116.812 252.109 114.139 249.906 113.629L244.806 112.447M92.1331 113.157L91.8335 108.477M244.806 112.447V104.639M244.806 112.447L208.852 144.469C208.059 145.175 206.951 145.41 205.94 145.085L91.8335 108.477M89.512 83.079L204.412 114.822C205.273 115.06 206.195 114.902 206.928 114.391L244.806 87.9589M89.512 83.079L88.8567 75.5594M89.512 83.079L90.1673 90.5985M88.2014 68.0398L203.406 94.6548C204.154 94.8276 204.94 94.7072 205.602 94.3182L244.806 71.2784M88.2014 68.0398L87.5462 60.5203M88.2014 68.0398L88.8567 75.5594M90.8225 98.1181L205.421 134.973C206.388 135.284 207.447 135.085 208.235 134.443L244.806 104.639M90.8225 98.1181L90.1673 90.5985M90.8225 98.1181L91.8335 108.477M244.806 71.2784V62.1395M244.806 71.2784V79.6186M244.806 104.639V96.2992M244.806 87.9589V79.6186M244.806 87.9589V96.2992M87.5462 60.5203L202.879 84.5594C203.583 84.7062 204.317 84.595 204.946 84.246L244.806 62.1395M88.8567 75.5594L203.909 104.741C204.714 104.945 205.568 104.806 206.267 104.357L244.806 79.6186M90.1673 90.5985L204.916 124.9C205.831 125.173 206.822 124.995 207.584 124.419L244.806 96.2992" stroke="white"/>
<path d="M90.9811 53.888L87.0688 53.1782L92.7595 118.303L96.6718 119.368L90.9811 53.888Z" fill="#3A0B5C"/>
<path d="M118.723 59.2116L113.21 58.1469L116.233 125.756L122.279 127.708L118.723 59.2116Z" fill="#3A0B5C"/>
<path d="M147.176 66.1322L140.774 64.5352L142.552 133.564L149.31 135.694L147.176 66.1322Z" fill="#3A0B5C"/>
<path d="M178.119 72.5205L172.784 71.1008V143.147L179.186 145.453L178.119 72.5205Z" fill="#3A0B5C"/>
<path d="M202.837 75.0049L201.059 75.7147L204.082 152.729L207.639 154.326L210.128 151.132L207.105 75.0049H202.837Z" fill="#3A0B5C"/>
<path d="M242.494 118.481L242.316 55.6626L244.628 54.4204V115.996L242.494 118.481Z" fill="#3A0B5C"/>
<path d="M227.022 63.293L222.221 65.4224L226.667 134.984L231.113 129.66L227.022 63.293Z" fill="#3A0B5C"/>
</g>
</svg>
